<svg width="151" height="151" viewBox="0 0 151 151" fill="none" xmlns="http://www.w3.org/2000/svg">
<path d="M15.0664 75.3247C15.0664 91.3064 21.4151 106.634 32.7159 117.934C44.0167 129.235 59.3439 135.584 75.3257 135.584C91.3074 135.584 106.635 129.235 117.935 117.934C129.236 106.634 135.585 91.3064 135.585 75.3247C135.585 59.3429 129.236 44.0158 117.935 32.715C106.635 21.4142 91.3074 15.0654 75.3257 15.0654C59.3439 15.0654 44.0167 21.4142 32.7159 32.715C21.4151 44.0158 15.0664 59.3429 15.0664 75.3247V75.3247Z" fill="#EEFF9E" stroke="#45413C" stroke-width="1.50648"/>
<path opacity="0.15" d="M91.8965 121.504C91.8965 120.256 84.4771 119.244 75.3252 119.244C66.1733 119.244 58.7539 120.256 58.7539 121.504C58.7539 122.751 66.1733 123.764 75.3252 123.764C84.4771 123.764 91.8965 122.751 91.8965 121.504Z" fill="#45413C"/>
<path d="M92.7605 74.3428L76.742 42.3059C76.6104 42.0426 76.4081 41.8212 76.1577 41.6664C75.9073 41.5117 75.6188 41.4297 75.3244 41.4297C75.0301 41.4297 74.7416 41.5117 74.4912 41.6664C74.2408 41.8212 74.0384 42.0426 73.9068 42.3059L57.8884 74.3428L37.578 56.7395C37.3285 56.5225 37.0173 56.3889 36.6881 56.3576C36.3589 56.3263 36.0281 56.3987 35.7421 56.5648C35.4561 56.7309 35.2292 56.9823 35.0932 57.2838C34.9573 57.5853 34.919 57.9217 34.9839 58.246L43.622 102.882C43.622 102.882 43.622 110.807 75.3244 110.807C107.027 110.807 107.027 102.882 107.027 102.882L115.665 58.246C115.73 57.9217 115.692 57.5853 115.556 57.2838C115.42 56.9823 115.193 56.7309 114.907 56.5648C114.621 56.3987 114.29 56.3263 113.961 56.3576C113.632 56.3889 113.32 56.5225 113.071 56.7395L92.7605 74.3428Z" fill="#FFE500"/>
<path d="M92.7605 74.3428L76.742 42.3059C76.6104 42.0426 76.4081 41.8212 76.1577 41.6664C75.9073 41.5117 75.6188 41.4297 75.3244 41.4297C75.0301 41.4297 74.7416 41.5117 74.4912 41.6664C74.2408 41.8212 74.0384 42.0426 73.9068 42.3059L57.8884 74.3428L37.578 56.7395C37.3285 56.5225 37.0173 56.3889 36.6881 56.3576C36.3589 56.3263 36.0281 56.3987 35.7421 56.5648C35.4561 56.7309 35.2292 56.9823 35.0932 57.2838C34.9573 57.5853 34.919 57.9217 34.9839 58.246L43.622 102.882C43.622 102.882 43.622 110.807 75.3244 110.807C107.027 110.807 107.027 102.882 107.027 102.882L115.665 58.246C115.73 57.9217 115.692 57.5853 115.556 57.2838C115.42 56.9823 115.193 56.7309 114.907 56.5648C114.621 56.3987 114.29 56.3263 113.961 56.3576C113.632 56.3889 113.32 56.5225 113.071 56.7395L92.7605 74.3428Z" fill="#FFE500"/>
<path d="M114.903 56.5648C114.617 56.3999 114.287 56.3281 113.959 56.3594C113.631 56.3907 113.32 56.5236 113.071 56.7395L92.7605 74.3428L76.742 42.3059C76.6104 42.0426 76.4081 41.8212 76.1577 41.6664C75.9073 41.5117 75.6188 41.4297 75.3244 41.4297C75.0301 41.4297 74.7416 41.5117 74.4912 41.6664C74.2408 41.8212 74.0384 42.0426 73.9068 42.3059L57.8884 74.3428L37.578 56.7395C37.3285 56.5225 37.0173 56.3889 36.6881 56.3576C36.3589 56.3263 36.0281 56.3987 35.7421 56.5648C35.4561 56.7309 35.2292 56.9823 35.0932 57.2838C34.9573 57.5853 34.919 57.9217 34.9839 58.246L43.622 102.882C43.622 102.882 43.622 110.807 75.3244 110.807C107.027 110.807 107.025 102.882 107.025 102.882L115.665 58.246C115.729 57.9213 115.691 57.5845 115.554 57.283C115.417 56.9814 115.189 56.7303 114.903 56.5648ZM102.224 101.514C101.265 102.344 96.0069 105.825 75.3244 105.825C54.642 105.825 49.3828 102.344 48.4247 101.514L42.4123 70.45C42.3636 70.1962 42.3951 69.9335 42.5025 69.6983C42.6099 69.4632 42.7878 69.2674 43.0116 69.138C43.2354 69.0086 43.4939 68.9522 43.7512 68.9764C44.0086 69.0007 44.252 69.1045 44.4476 69.2735L58.2605 81.2455C58.4038 81.3698 58.5735 81.4596 58.7568 81.5082C58.9401 81.5567 59.1321 81.5627 59.3181 81.5256C59.504 81.4885 59.6791 81.4094 59.8297 81.2943C59.9804 81.1791 60.1027 81.031 60.1873 80.8613L74.2127 52.8152C74.3159 52.6086 74.4745 52.4349 74.6709 52.3135C74.8673 52.1921 75.0936 52.1278 75.3244 52.1278C75.5553 52.1278 75.7816 52.1921 75.978 52.3135C76.1744 52.4349 76.333 52.6086 76.4362 52.8152L90.4601 80.8628C90.545 81.0322 90.6676 81.1799 90.8183 81.2947C90.9691 81.4095 91.144 81.4884 91.3299 81.5253C91.5157 81.5622 91.7076 81.5562 91.8908 81.5077C92.0739 81.4592 92.2436 81.3695 92.3869 81.2455L106.201 69.275C106.397 69.1057 106.64 69.0016 106.898 68.9771C107.155 68.9527 107.414 69.0091 107.637 69.1386C107.861 69.2681 108.039 69.4641 108.146 69.6995C108.253 69.9348 108.284 70.1977 108.235 70.4515L102.224 101.514Z" fill="#FFF48C"/>
<path d="M42.2646 95.8496L43.6205 102.874C43.6205 102.874 43.6205 110.8 75.3229 110.8C107.025 110.8 107.025 102.874 107.025 102.874L108.381 95.8496C105.338 98.1741 97.1819 101.288 75.3199 101.288C53.4578 101.288 45.3077 98.1741 42.2646 95.8496Z" fill="#EBCB00"/>
<path d="M47.8337 98.4528C45.8387 97.9153 43.9525 97.0344 42.2598 95.8496L43.6156 102.874C43.6156 102.874 43.6156 105.639 50.1447 107.901L47.8337 98.4528Z" fill="#FFE500"/>
<path d="M101.492 107.534C107.029 105.349 107.028 102.874 107.028 102.874L108.384 95.8496C106.831 96.9465 105.105 97.7769 103.279 98.3067L101.492 107.534Z" fill="#FFE500"/>
<path d="M42.2646 95.8496C45.3077 98.1741 53.4638 101.29 75.3259 101.29C97.1879 101.29 105.344 98.1741 108.387 95.8496" stroke="#45413C" stroke-width="1.50648" stroke-linecap="round" stroke-linejoin="round"/>
<path d="M92.7605 74.3428L76.742 42.3059C76.6104 42.0426 76.4081 41.8212 76.1577 41.6664C75.9073 41.5117 75.6188 41.4297 75.3244 41.4297C75.0301 41.4297 74.7416 41.5117 74.4912 41.6664C74.2408 41.8212 74.0384 42.0426 73.9068 42.3059L57.8884 74.3428L37.578 56.7395C37.3285 56.5225 37.0173 56.3889 36.6881 56.3576C36.3589 56.3263 36.0281 56.3987 35.7421 56.5648C35.4561 56.7309 35.2292 56.9823 35.0932 57.2838C34.9573 57.5853 34.919 57.9217 34.9839 58.246L43.622 102.882C43.622 102.882 43.622 110.807 75.3244 110.807C107.027 110.807 107.027 102.882 107.027 102.882L115.665 58.246C115.73 57.9217 115.692 57.5853 115.556 57.2838C115.42 56.9823 115.193 56.7309 114.907 56.5648C114.621 56.3987 114.29 56.3263 113.961 56.3576C113.632 56.3889 113.32 56.5225 113.071 56.7395L92.7605 74.3428Z" stroke="#45413C" stroke-width="1.50648" stroke-linecap="round" stroke-linejoin="round"/>
<path d="M105.272 35.9621C105.474 35.0839 105.919 34.2802 106.556 33.6428C107.194 33.0054 107.997 32.5599 108.875 32.3571L116.106 30.6879C116.238 30.6564 116.355 30.5814 116.439 30.4751C116.523 30.3687 116.569 30.2373 116.569 30.1019C116.569 29.9665 116.523 29.835 116.439 29.7287C116.355 29.6224 116.238 29.5474 116.106 29.5158L108.875 27.8467C107.997 27.644 107.193 27.1988 106.556 26.5617C105.919 25.9246 105.473 25.1212 105.27 24.2432L103.601 17.0121C103.569 16.8804 103.494 16.7631 103.388 16.6793C103.282 16.5954 103.15 16.5498 103.015 16.5498C102.88 16.5498 102.748 16.5954 102.642 16.6793C102.535 16.7631 102.46 16.8804 102.429 17.0121L100.761 24.2432C100.559 25.1215 100.113 25.9252 99.4756 26.5626C98.8382 27.2 98.0346 27.6454 97.1562 27.8482L89.9251 29.5158C89.7935 29.5474 89.6762 29.6224 89.5924 29.7287C89.5085 29.835 89.4629 29.9665 89.4629 30.1019C89.4629 30.2373 89.5085 30.3687 89.5924 30.4751C89.6762 30.5814 89.7935 30.6564 89.9251 30.6879L97.1562 32.3571C98.0346 32.5598 98.8382 33.0053 99.4756 33.6427C100.113 34.2801 100.559 35.0838 100.761 35.9621L102.429 43.1932C102.46 43.3249 102.535 43.4421 102.642 43.526C102.748 43.6098 102.88 43.6554 103.015 43.6554C103.15 43.6554 103.282 43.6098 103.388 43.526C103.494 43.4421 103.569 43.3249 103.601 43.1932L105.272 35.9621Z" fill="#FFF48C" stroke="#B58B00" stroke-width="1.50648" stroke-linecap="round" stroke-linejoin="round"/>
<path d="M48.5885 42.9083C48.7493 42.2109 49.103 41.5727 49.6091 41.0666C50.1152 40.5604 50.7534 40.2068 51.4509 40.046L57.189 38.7218C57.2948 38.6984 57.3894 38.6395 57.4572 38.555C57.525 38.4705 57.562 38.3654 57.562 38.2571C57.562 38.1487 57.525 38.0436 57.4572 37.9591C57.3894 37.8746 57.2948 37.8158 57.189 37.7923L51.4494 36.4681C50.7518 36.3075 50.1135 35.9539 49.6074 35.4478C49.1012 34.9416 48.7477 34.3033 48.587 33.6058L47.2643 27.8706C47.2396 27.766 47.1803 27.6727 47.0959 27.606C47.0116 27.5392 46.9072 27.5029 46.7996 27.5029C46.692 27.5029 46.5876 27.5392 46.5033 27.606C46.4189 27.6727 46.3596 27.766 46.3348 27.8706L45.0107 33.6073C44.8507 34.3052 44.4973 34.9438 43.9911 35.4501C43.4848 35.9563 42.8462 36.3097 42.1483 36.4696L36.4117 37.7938C36.307 37.8186 36.2137 37.8779 36.147 37.9623C36.0803 38.0466 36.0439 38.151 36.0439 38.2586C36.0439 38.3661 36.0803 38.4705 36.147 38.5549C36.2137 38.6392 36.307 38.6986 36.4117 38.7233L42.1483 40.0475C42.8459 40.208 43.4843 40.5615 43.9905 41.0677C44.4967 41.5738 44.8502 42.2122 45.0107 42.9098L46.3348 48.6495C46.3583 48.7553 46.4172 48.8499 46.5017 48.9177C46.5862 48.9855 46.6913 49.0225 46.7996 49.0225C46.9079 49.0225 47.013 48.9855 47.0975 48.9177C47.182 48.8499 47.2409 48.7553 47.2643 48.6495L48.5885 42.9083Z" fill="#FFF48C" stroke="#B58B00" stroke-width="1.50648" stroke-linecap="round" stroke-linejoin="round"/>
<path d="M141.561 78.0846C141.692 77.5225 141.978 77.0084 142.386 76.6005C142.794 76.1925 143.309 75.9071 143.871 75.7766L148.518 74.704C148.603 74.6838 148.678 74.6357 148.732 74.5674C148.786 74.499 148.816 74.4145 148.816 74.3274C148.816 74.2403 148.786 74.1558 148.732 74.0875C148.678 74.0191 148.603 73.971 148.518 73.9508L143.871 72.8722C143.307 72.7417 142.79 72.4555 142.381 72.0462C141.971 71.6368 141.685 71.1208 141.554 70.5567L140.483 65.9107C140.462 65.826 140.414 65.7506 140.346 65.6966C140.278 65.6426 140.193 65.6133 140.106 65.6133C140.019 65.6133 139.934 65.6426 139.866 65.6966C139.798 65.7506 139.75 65.826 139.729 65.9107L138.658 70.5567C138.528 71.1208 138.241 71.637 137.832 72.0463C137.422 72.4557 136.906 72.7418 136.341 72.8722L131.697 73.9433C131.612 73.9634 131.537 74.0116 131.483 74.0799C131.429 74.1483 131.399 74.2328 131.399 74.3199C131.399 74.407 131.429 74.4915 131.483 74.5598C131.537 74.6282 131.612 74.6763 131.697 74.6965L136.341 75.7691C136.906 75.8992 137.422 76.1853 137.831 76.5947C138.241 77.0041 138.527 77.5204 138.657 78.0846L139.729 82.7321C139.75 82.8168 139.798 82.8922 139.866 82.9462C139.934 83.0001 140.019 83.0295 140.106 83.0295C140.193 83.0295 140.278 83.0001 140.346 82.9462C140.414 82.8922 140.462 82.8168 140.483 82.7321L141.561 78.0846Z" fill="#FFF48C" stroke="#B58B00" stroke-width="1.50648" stroke-linecap="round" stroke-linejoin="round"/>
</svg>
