<svg width="151" height="151" viewBox="0 0 151 151" fill="none" xmlns="http://www.w3.org/2000/svg">
<g clip-path="url(#clip0_1325_1184)">
<path d="M13.251 74.6919C13.251 90.6736 19.5997 106.001 30.9005 117.302C42.2013 128.602 57.5285 134.951 73.5102 134.951C89.492 134.951 104.819 128.602 116.12 117.302C127.421 106.001 133.769 90.6736 133.769 74.6919C133.769 58.7101 127.421 43.3829 116.12 32.0821C104.819 20.7813 89.492 14.4326 73.5102 14.4326C57.5285 14.4326 42.2013 20.7813 30.9005 32.0821C19.5997 43.3829 13.251 58.7101 13.251 74.6919Z" fill="#EEFF9E" stroke="#45413C" stroke-width="1.50648"/>
<path d="M36.0964 39.7324L15.3311 86.5689" stroke="#8CA4B8" stroke-width="1.50648" stroke-linecap="round" stroke-linejoin="round"/>
<path d="M55.1458 117.491L15.3311 86.5693" stroke="#8CA4B8" stroke-width="1.50648" stroke-linecap="round" stroke-linejoin="round"/>
<path d="M117.271 71.1816L96.6348 107.391" stroke="#00AED9" stroke-width="1.50648" stroke-linecap="round" stroke-linejoin="round"/>
<path d="M36.0957 39.7324L90.1046 28.2334" stroke="#8CA4B8" stroke-width="1.50648" stroke-linecap="round" stroke-linejoin="round"/>
<path d="M117.271 71.1817L90.1064 28.2334" stroke="#8CA4B8" stroke-width="1.50648" stroke-linecap="round" stroke-linejoin="round"/>
<path d="M117.27 71.1816L73.0775 81.0642L15.3311 86.5688" stroke="#00AED9" stroke-width="1.50648" stroke-linecap="round" stroke-linejoin="round"/>
<path d="M36.0957 39.7324L55.1452 117.491" stroke="#8CA4B8" stroke-width="1.50648" stroke-linecap="round" stroke-linejoin="round"/>
<path d="M90.1059 28.2334L73.0781 81.0642" stroke="#8CA4B8" stroke-width="1.50648" stroke-linecap="round" stroke-linejoin="round"/>
<path d="M36.0957 39.7324L96.6337 107.392" stroke="#8CA4B8" stroke-width="1.50648" stroke-linecap="round" stroke-linejoin="round"/>
<path d="M96.635 107.391L55.1465 117.49" stroke="#8CA4B8" stroke-width="1.50648" stroke-linecap="round" stroke-linejoin="round"/>
<path d="M15.3311 86.5689L90.1053 28.2334" stroke="#8CA4B8" stroke-width="1.50648" stroke-linecap="round" stroke-linejoin="round"/>
<path d="M0.441406 83.7792C0.441406 85.9598 0.870893 88.1189 1.70534 90.1335C2.53979 92.148 3.76287 93.9785 5.30473 95.5204C6.8466 97.0622 8.67706 98.2853 10.6916 99.1197C12.7061 99.9542 14.8653 100.384 17.0458 100.384C19.2264 100.384 21.3855 99.9542 23.4001 99.1197C25.4146 98.2853 27.2451 97.0622 28.787 95.5204C30.3288 93.9785 31.5519 92.148 32.3863 90.1335C33.2208 88.1189 33.6503 85.9598 33.6503 83.7792C33.6503 81.5987 33.2208 79.4395 32.3863 77.425C31.5519 75.4105 30.3288 73.58 28.787 72.0381C27.2451 70.4963 25.4146 69.2732 23.4001 68.4387C21.3855 67.6043 19.2264 67.1748 17.0458 67.1748C14.8653 67.1748 12.7061 67.6043 10.6916 68.4387C8.67706 69.2732 6.8466 70.4963 5.30473 72.0381C3.76287 73.58 2.53979 75.4105 1.70534 77.425C0.870893 79.4395 0.441406 81.5987 0.441406 83.7792Z" fill="white" stroke="#45413C" stroke-width="1.50648" stroke-linecap="round" stroke-linejoin="round"/>
<path d="M25.9108 88.0074C25.9076 87.6467 25.7797 87.2982 25.5487 87.0212C25.3178 86.7441 24.9981 86.5555 24.6439 86.4873V85.4735C24.6581 84.4659 24.4719 83.4655 24.0961 82.5306C23.7203 81.5956 23.1625 80.7446 22.455 80.0271C21.7475 79.3095 20.9044 78.7398 19.9748 78.3509C19.0452 77.962 18.0476 77.7617 17.0399 77.7617C16.0323 77.7617 15.0346 77.962 14.105 78.3509C13.1754 78.7398 12.3324 79.3095 11.6249 80.0271C10.9174 80.7446 10.3595 81.5956 9.98376 82.5306C9.60799 83.4655 9.42178 84.4659 9.43597 85.4735V86.4873C9.06655 86.5565 8.73481 86.7574 8.50234 87.0527C8.26988 87.3481 8.1525 87.7177 8.17202 88.093C8.19153 88.4684 8.3466 88.8239 8.60843 89.0935C8.87027 89.3631 9.22106 89.5285 9.59565 89.559C9.95263 91.2693 10.8876 92.8044 12.2433 93.9064C13.599 95.0084 15.2928 95.6099 17.0399 95.6099C18.787 95.6099 20.4808 95.0084 21.8366 93.9064C23.1923 92.8044 24.1272 91.2693 24.4842 89.559C24.8724 89.5242 25.2337 89.3459 25.4975 89.059C25.7613 88.7721 25.9087 88.3971 25.9108 88.0074Z" fill="#FFCEBF" stroke="#45413C" stroke-width="1.50648" stroke-linecap="round" stroke-linejoin="round"/>
<path d="M11.9775 88.9584C11.9775 89.2105 12.0777 89.4523 12.256 89.6306C12.4342 89.8088 12.676 89.909 12.9281 89.909C13.1802 89.909 13.422 89.8088 13.6003 89.6306C13.7786 89.4523 13.8787 89.2105 13.8787 88.9584C13.8787 88.7063 13.7786 88.4645 13.6003 88.2862C13.422 88.108 13.1802 88.0078 12.9281 88.0078C12.676 88.0078 12.4342 88.108 12.256 88.2862C12.0777 88.4645 11.9775 88.7063 11.9775 88.9584Z" fill="#FFB59E"/>
<path d="M20.2148 88.9584C20.2148 89.0832 20.2394 89.2068 20.2872 89.3222C20.335 89.4375 20.405 89.5423 20.4933 89.6306C20.5815 89.7188 20.6863 89.7889 20.8017 89.8366C20.917 89.8844 21.0406 89.909 21.1654 89.909C21.2903 89.909 21.4139 89.8844 21.5292 89.8366C21.6445 89.7889 21.7493 89.7188 21.8376 89.6306C21.9259 89.5423 21.9959 89.4375 22.0437 89.3222C22.0914 89.2068 22.116 89.0832 22.116 88.9584C22.116 88.8336 22.0914 88.71 22.0437 88.5946C21.9959 88.4793 21.9259 88.3745 21.8376 88.2862C21.7493 88.198 21.6445 88.1279 21.5292 88.0802C21.4139 88.0324 21.2903 88.0078 21.1654 88.0078C21.0406 88.0078 20.917 88.0324 20.8017 88.0802C20.6863 88.1279 20.5815 88.198 20.4933 88.2862C20.405 88.3745 20.335 88.4793 20.2872 88.5946C20.2394 88.71 20.2148 88.8336 20.2148 88.9584Z" fill="#FFB59E"/>
<path d="M15.1455 91.2324C15.7081 91.6082 16.3694 91.8088 17.0459 91.8088C17.7225 91.8088 18.3838 91.6082 18.9464 91.2324" stroke="#45413C" stroke-width="1.50648" stroke-linecap="round" stroke-linejoin="round"/>
<path d="M25.2827 83.5725C25.2975 82.4814 25.0953 81.3984 24.688 80.3861C24.2807 79.3738 23.6763 78.4526 22.91 77.6758C22.1437 76.8991 21.2307 76.2823 20.2241 75.8614C19.2174 75.4404 18.1372 75.2236 17.046 75.2236C15.9549 75.2236 14.8746 75.4404 13.868 75.8614C12.8613 76.2823 11.9483 76.8991 11.182 77.6758C10.4157 78.4526 9.81136 79.3738 9.40405 80.3861C8.99674 81.3984 8.79459 82.4814 8.80935 83.5725V85.4736C8.80935 85.6415 8.87601 85.8024 8.99467 85.9211C9.11333 86.0397 9.27426 86.1064 9.44207 86.1064H10.7105C10.8783 86.1064 11.0393 86.0397 11.1579 85.9211C11.2766 85.8024 11.3432 85.6415 11.3432 85.4736C11.3439 84.7191 11.4961 83.9724 11.7908 83.2778C12.0856 82.5832 12.5169 81.9549 13.0591 81.4303C13.1977 81.2942 13.3657 81.1919 13.5501 81.1313C13.7346 81.0707 13.9305 81.0534 14.1227 81.0807C14.9223 81.1804 15.6651 81.5459 16.2318 82.1187C16.9806 82.8908 17.9679 83.3877 19.0341 83.529C20.1003 83.6703 21.183 83.4479 22.1071 82.8976C22.4251 83.5148 22.6292 84.1844 22.7097 84.8741C22.7278 85.0391 22.8059 85.1917 22.9293 85.3028C23.0526 85.4139 23.2125 85.4758 23.3785 85.4767H24.6455C24.8134 85.4763 24.9744 85.4093 25.093 85.2904C25.2116 85.1715 25.2782 85.0104 25.2782 84.8424L25.2827 83.5725Z" fill="#FF6196" stroke="#45413C" stroke-width="1.50648" stroke-linecap="round" stroke-linejoin="round"/>
<path d="M17.0461 77.8693C18.6941 77.868 20.3141 78.2958 21.7466 79.1107C23.1791 79.9257 24.3747 81.0995 25.2157 82.5168C24.9581 80.5324 23.987 78.7097 22.4837 77.389C20.9805 76.0682 19.0479 75.3398 17.0468 75.3398C15.0458 75.3398 13.1132 76.0682 11.6099 77.389C10.1067 78.7097 9.13554 80.5324 8.87793 82.5168C9.71883 81.0997 10.9142 79.926 12.3464 79.1111C13.7786 78.2962 15.3983 77.8683 17.0461 77.8693Z" fill="#FF87AF"/>
<path d="M25.2827 83.5725C25.2975 82.4814 25.0953 81.3984 24.688 80.3861C24.2807 79.3738 23.6763 78.4526 22.91 77.6758C22.1437 76.8991 21.2307 76.2823 20.2241 75.8614C19.2174 75.4404 18.1372 75.2236 17.046 75.2236C15.9549 75.2236 14.8746 75.4404 13.868 75.8614C12.8613 76.2823 11.9483 76.8991 11.182 77.6758C10.4157 78.4526 9.81136 79.3738 9.40405 80.3861C8.99674 81.3984 8.79459 82.4814 8.80935 83.5725V85.4736C8.80935 85.6415 8.87601 85.8024 8.99467 85.921C9.11333 86.0397 9.27426 86.1064 9.44207 86.1064H10.7105C10.8783 86.1064 11.0393 86.0397 11.1579 85.921C11.2766 85.8024 11.3432 85.6415 11.3432 85.4736C11.3439 84.7191 11.4961 83.9724 11.7908 83.2778C12.0856 82.5832 12.5169 81.9549 13.0591 81.4303C13.1977 81.2942 13.3657 81.1919 13.5501 81.1313C13.7346 81.0707 13.9305 81.0534 14.1227 81.0807C14.9223 81.1804 15.6651 81.5459 16.2318 82.1187C16.9806 82.8908 17.9679 83.3877 19.0341 83.529C20.1003 83.6703 21.183 83.4479 22.1071 82.8976C22.4251 83.5148 22.6292 84.1844 22.7097 84.8741C22.7278 85.0391 22.8059 85.1917 22.9293 85.3028C23.0526 85.4139 23.2125 85.4758 23.3785 85.4767H24.6455C24.8134 85.4763 24.9744 85.4093 25.093 85.2904C25.2116 85.1715 25.2782 85.0104 25.2782 84.8424L25.2827 83.5725Z" stroke="#45413C" stroke-width="1.50648" stroke-linecap="round" stroke-linejoin="round"/>
<path d="M22.1073 82.8985C22.1743 82.8588 22.2281 82.8003 22.262 82.7302C22.2959 82.6601 22.3084 82.5816 22.2979 82.5045C22.2875 82.4274 22.2546 82.355 22.2032 82.2965C22.1519 82.238 22.0845 82.1958 22.0094 82.1754C21.015 81.895 20.1543 81.2669 19.584 80.4053" fill="#FFDF3D"/>
<path d="M22.1073 82.8985C22.1743 82.8588 22.2281 82.8003 22.262 82.7302C22.2959 82.6601 22.3084 82.5816 22.2979 82.5045C22.2875 82.4274 22.2546 82.355 22.2032 82.2965C22.1519 82.238 22.0845 82.1958 22.0094 82.1754C21.015 81.895 20.1543 81.2669 19.584 80.4053" stroke="#45413C" stroke-width="1.50648" stroke-linecap="round" stroke-linejoin="round"/>
<path d="M14.1957 85.4746C14.0076 85.4746 13.8238 85.5304 13.6674 85.6349C13.5111 85.7394 13.3892 85.888 13.3173 86.0618C13.2454 86.2356 13.2267 86.4268 13.2635 86.6112C13.3003 86.7956 13.391 86.965 13.5241 87.0979C13.6572 87.2308 13.8267 87.3212 14.0112 87.3577C14.1957 87.3942 14.3869 87.3752 14.5605 87.303C14.7342 87.2308 14.8826 87.1087 14.9868 86.9522C15.0911 86.7957 15.1466 86.6118 15.1463 86.4237C15.1463 86.2989 15.1217 86.1754 15.0739 86.0601C15.0261 85.9449 14.9561 85.8402 14.8678 85.7521C14.7795 85.6639 14.6747 85.594 14.5594 85.5464C14.444 85.4988 14.3205 85.4744 14.1957 85.4746Z" fill="#45413C"/>
<path d="M19.8979 85.4746C19.7098 85.4746 19.5259 85.5304 19.3696 85.6349C19.2132 85.7394 19.0914 85.888 19.0195 86.0618C18.9476 86.2356 18.9288 86.4268 18.9656 86.6112C19.0024 86.7956 19.0931 86.965 19.2262 87.0979C19.3593 87.2308 19.5288 87.3212 19.7133 87.3577C19.8978 87.3942 20.089 87.3752 20.2627 87.303C20.4363 87.2308 20.5847 87.1087 20.689 86.9522C20.7932 86.7957 20.8487 86.6118 20.8484 86.4237C20.848 86.1718 20.7477 85.9304 20.5695 85.7525C20.3913 85.5746 20.1497 85.4746 19.8979 85.4746Z" fill="#45413C"/>
<path d="M17.046 75.3347C18.125 75.3329 19.1939 75.5439 20.1914 75.9554C21.1889 76.3669 22.0955 76.9709 22.8595 77.733C23.1964 77.2048 23.3776 76.5923 23.3822 75.9659C23.3822 73.5163 20.5455 71.5293 17.046 71.5293C13.5464 71.5293 10.7188 73.5163 10.7188 75.9659C10.7212 76.5916 10.8997 77.204 11.234 77.733C11.9977 76.9711 12.9041 76.3671 13.9013 75.9556C14.8986 75.544 15.9672 75.3331 17.046 75.3347Z" fill="#FF6196" stroke="#45413C" stroke-width="1.50648" stroke-linecap="round" stroke-linejoin="round"/>
<path d="M72.6719 27.9277C72.6719 32.3314 74.4213 36.5549 77.5352 39.6688C80.6491 42.7827 84.8725 44.5321 89.2763 44.5321C93.6801 44.5321 97.9035 42.7827 101.017 39.6688C104.131 36.5549 105.881 32.3314 105.881 27.9277C105.881 23.5239 104.131 19.3005 101.017 16.1866C97.9035 13.0726 93.6801 11.3232 89.2763 11.3232C84.8725 11.3232 80.6491 13.0726 77.5352 16.1866C74.4213 19.3005 72.6719 23.5239 72.6719 27.9277Z" fill="white" stroke="#45413C" stroke-width="1.50648" stroke-linecap="round" stroke-linejoin="round"/>
<path d="M100.047 32.2379C100.043 31.8291 99.8977 31.4342 99.6357 31.1203C99.3737 30.8064 99.0111 30.5929 98.6096 30.516V29.3665C98.6096 27.0816 97.7019 24.8902 96.0861 23.2744C94.4704 21.6587 92.279 20.751 89.994 20.751C87.709 20.751 85.5176 21.6587 83.9019 23.2744C82.2861 24.8902 81.3784 27.0816 81.3784 29.3665V30.516C80.9589 30.5934 80.5819 30.8207 80.3175 31.1556C80.0532 31.4905 79.9197 31.91 79.9418 32.336C79.9639 32.762 80.1402 33.1655 80.4378 33.4712C80.7354 33.7769 81.1339 33.9639 81.5592 33.9975C81.9628 35.9364 83.0219 37.6772 84.5584 38.9269C86.0949 40.1765 88.015 40.8587 89.9955 40.8587C91.976 40.8587 93.8961 40.1765 95.4326 38.9269C96.9691 37.6772 98.0282 35.9364 98.4318 33.9975C98.8714 33.9571 99.2803 33.7545 99.5788 33.4293C99.8773 33.104 100.044 32.6794 100.047 32.2379Z" fill="#D18660" stroke="#45413C" stroke-width="1.50648" stroke-linecap="round" stroke-linejoin="round"/>
<path d="M100.047 32.2379C100.043 31.8291 99.8977 31.4342 99.6357 31.1203C99.3737 30.8064 99.0111 30.5929 98.6096 30.516V29.3665C98.6096 27.0816 97.7019 24.8901 96.0861 23.2744C94.4704 21.6587 92.279 20.751 89.994 20.751C87.709 20.751 85.5176 21.6587 83.9019 23.2744C82.2861 24.8901 81.3784 27.0816 81.3784 29.3665V30.516C80.9589 30.5934 80.5819 30.8207 80.3175 31.1556C80.0532 31.4905 79.9197 31.91 79.9418 32.336C79.9639 32.762 80.1402 33.1655 80.4378 33.4712C80.7354 33.7769 81.1339 33.9639 81.5592 33.9975C81.9628 35.9364 83.0219 37.6772 84.5584 38.9269C86.0949 40.1765 88.015 40.8587 89.9955 40.8587C91.976 40.8587 93.8961 40.1765 95.4326 38.9269C96.9691 37.6772 98.0282 35.9364 98.4318 33.9975C98.8714 33.9571 99.2803 33.7545 99.5788 33.4293C99.8773 33.104 100.044 32.6794 100.047 32.2379V32.2379Z" stroke="#45413C" stroke-width="1.50648" stroke-linecap="round" stroke-linejoin="round"/>
<path d="M86.7627 29.3633C86.5496 29.3633 86.3414 29.4265 86.1643 29.5448C85.9871 29.6632 85.8491 29.8314 85.7675 30.0282C85.686 30.225 85.6647 30.4416 85.7062 30.6506C85.7478 30.8595 85.8504 31.0514 86.001 31.2021C86.1517 31.3527 86.3436 31.4553 86.5525 31.4969C86.7615 31.5384 86.9781 31.5171 87.1749 31.4356C87.3717 31.354 87.5399 31.216 87.6583 31.0388C87.7766 30.8617 87.8398 30.6535 87.8398 30.4404C87.8398 30.1547 87.7263 29.8808 87.5243 29.6788C87.3223 29.4768 87.0484 29.3633 86.7627 29.3633Z" fill="#45413C"/>
<path d="M93.2246 29.3633C93.0116 29.3633 92.8033 29.4265 92.6262 29.5448C92.449 29.6632 92.311 29.8314 92.2295 30.0282C92.1479 30.225 92.1266 30.4416 92.1682 30.6506C92.2097 30.8595 92.3123 31.0514 92.4629 31.2021C92.6136 31.3527 92.8055 31.4553 93.0145 31.4969C93.2234 31.5384 93.44 31.5171 93.6368 31.4356C93.8336 31.354 94.0018 31.216 94.1202 31.0388C94.2386 30.8617 94.3017 30.6535 94.3017 30.4404C94.3017 30.1547 94.1882 29.8808 93.9862 29.6788C93.7842 29.4768 93.5103 29.3633 93.2246 29.3633Z" fill="#45413C"/>
<path d="M84.251 33.3115C84.251 33.5972 84.3645 33.8712 84.5665 34.0732C84.7685 34.2752 85.0424 34.3886 85.3281 34.3886C85.6138 34.3886 85.8878 34.2752 86.0898 34.0732C86.2918 33.8712 86.4052 33.5972 86.4052 33.3115C86.4052 33.0258 86.2918 32.7519 86.0898 32.5499C85.8878 32.3479 85.6138 32.2344 85.3281 32.2344C85.0424 32.2344 84.7685 32.3479 84.5665 32.5499C84.3645 32.7519 84.251 33.0258 84.251 33.3115Z" fill="#BD704A"/>
<path d="M93.582 33.3115C93.582 33.5972 93.6955 33.8712 93.8975 34.0732C94.0995 34.2752 94.3735 34.3886 94.6592 34.3886C94.9448 34.3886 95.2188 34.2752 95.4208 34.0732C95.6228 33.8712 95.7363 33.5972 95.7363 33.3115C95.7363 33.0258 95.6228 32.7519 95.4208 32.5499C95.2188 32.3479 94.9448 32.2344 94.6592 32.2344C94.3735 32.2344 94.0995 32.3479 93.8975 32.5499C93.6955 32.7519 93.582 33.0258 93.582 33.3115Z" fill="#BD704A"/>
<path d="M87.8398 35.8906C88.4776 36.3158 89.2269 36.5427 89.9934 36.5427C90.7598 36.5427 91.5091 36.3158 92.1469 35.8906" stroke="#45413C" stroke-width="1.50648" stroke-linecap="round" stroke-linejoin="round"/>
<path d="M80.6592 22.8975V29.3588C80.6592 29.5491 80.7347 29.7316 80.8691 29.8663C81.0036 30.0011 81.1859 30.077 81.3763 30.0774H82.1024L84.9647 22.8975H80.6592Z" fill="#614B44" stroke="#45413C" stroke-width="1.50648" stroke-linecap="round" stroke-linejoin="round"/>
<path d="M99.327 23.6192C99.3266 22.096 98.7213 20.6353 97.644 19.5584C96.5668 18.4815 95.106 17.8765 93.5828 17.8765H87.1215C86.8472 17.8765 86.5787 17.798 86.3477 17.65C86.1168 17.5021 85.9331 17.2911 85.8184 17.0419C85.7428 16.8749 85.6241 16.7311 85.4745 16.6252C85.325 16.5193 85.1499 16.4551 84.9672 16.4393H83.747C82.6473 16.418 81.5786 16.8044 80.7467 17.5239C79.9148 18.2434 79.3785 19.2453 79.2411 20.3366C79.1338 21.4632 79.4741 22.5868 80.1884 23.4646C80.9026 24.3424 81.9336 24.9039 83.0585 25.0278C83.2617 25.79 83.6889 26.4736 84.2848 26.9904C84.8808 27.5071 85.6181 27.8331 86.4014 27.9262H87.8386C87.8953 27.9257 87.9503 27.9067 87.9952 27.8721C88.0402 27.8375 88.0726 27.7892 88.0876 27.7345C88.1026 27.6798 88.0993 27.6217 88.0783 27.5691C88.0573 27.5164 88.0197 27.472 87.9712 27.4426C87.3187 27.0531 86.8437 26.4246 86.647 25.6906C86.6246 25.6168 86.6199 25.5387 86.6331 25.4627C86.6463 25.3868 86.6772 25.3149 86.7232 25.253C86.7691 25.191 86.829 25.1407 86.8979 25.1061C86.9668 25.0714 87.0429 25.0534 87.12 25.0534H92.9862C93.1749 25.0534 93.3618 25.0906 93.536 25.163C93.7102 25.2354 93.8685 25.3415 94.0016 25.4752L97.8898 29.3619H98.6069C98.7013 29.3621 98.7949 29.3437 98.8822 29.3076C98.9694 29.2716 99.0487 29.2186 99.1155 29.1519C99.1823 29.0851 99.2352 29.0058 99.2712 28.9185C99.3073 28.8313 99.3257 28.7377 99.3255 28.6433L99.327 23.6192Z" fill="#614B44"/>
<path d="M93.5831 17.8765H87.1218C86.8476 17.8764 86.5791 17.7977 86.3482 17.6498C86.1173 17.5019 85.9335 17.2909 85.8187 17.0419C85.7432 16.8749 85.6245 16.7311 85.4749 16.6252C85.3253 16.5193 85.1502 16.4551 84.9676 16.4393H83.7473C82.6476 16.418 81.5789 16.8044 80.747 17.5239C79.9151 18.2434 79.3789 19.2453 79.2414 20.3366C79.193 20.8562 79.2384 21.3802 79.3755 21.8837C82.1549 21.2725 84.9932 20.9694 87.8389 20.9798C91.7115 20.9378 95.5657 21.5192 99.2535 22.7018C99.0353 21.3551 98.3449 20.1301 97.306 19.246C96.267 18.3619 94.9473 17.8765 93.5831 17.8765Z" fill="#947063"/>
<path d="M99.327 23.6192C99.3266 22.096 98.7213 20.6353 97.644 19.5584C96.5668 18.4815 95.106 17.8765 93.5828 17.8765H87.1215C86.8472 17.8765 86.5787 17.798 86.3477 17.65C86.1168 17.5021 85.9331 17.2911 85.8184 17.0419C85.7428 16.8749 85.6241 16.7311 85.4745 16.6252C85.325 16.5193 85.1499 16.4551 84.9672 16.4393H83.747C82.6473 16.418 81.5786 16.8044 80.7467 17.5239C79.9148 18.2434 79.3785 19.2453 79.2411 20.3366C79.1338 21.4632 79.4741 22.5868 80.1884 23.4646C80.9026 24.3423 81.9336 24.9039 83.0585 25.0278C83.2617 25.79 83.6889 26.4736 84.2848 26.9904C84.8808 27.5071 85.6181 27.8331 86.4014 27.9262H87.8386C87.8953 27.9257 87.9503 27.9067 87.9952 27.8721C88.0402 27.8375 88.0726 27.7892 88.0876 27.7345C88.1026 27.6798 88.0993 27.6217 88.0783 27.5691C88.0573 27.5164 88.0197 27.472 87.9712 27.4426C87.3187 27.0531 86.8437 26.4246 86.647 25.6906C86.6246 25.6168 86.6199 25.5387 86.6331 25.4627C86.6463 25.3868 86.6772 25.3149 86.7232 25.253C86.7691 25.191 86.829 25.1407 86.8979 25.1061C86.9668 25.0714 87.0429 25.0534 87.12 25.0534H92.9862C93.1749 25.0534 93.3618 25.0906 93.536 25.163C93.7102 25.2354 93.8685 25.3415 94.0016 25.4752L97.8898 29.3619H98.6069C98.7013 29.3621 98.7949 29.3437 98.8822 29.3076C98.9694 29.2716 99.0487 29.2186 99.1155 29.1519C99.1823 29.0851 99.2352 29.0058 99.2712 28.9185C99.3073 28.8313 99.3257 28.7377 99.3255 28.6433L99.327 23.6192Z" stroke="#45413C" stroke-width="1.50648" stroke-linecap="round" stroke-linejoin="round"/>
<path d="M111.317 106.475L117.346 100.447L127.895 110.996L121.866 117.024L111.317 106.475Z" fill="#F0F0F0" stroke="#45413C" stroke-width="1.50648" stroke-linecap="round" stroke-linejoin="round"/>
<path d="M148.388 137.24L148.1 137.528C146.935 138.683 145.361 139.331 143.721 139.331C142.081 139.331 140.507 138.683 139.343 137.528L120.308 118.486C119.923 118.098 119.707 117.573 119.707 117.026C119.707 116.479 119.923 115.954 120.308 115.566L126.434 109.441C126.822 109.056 127.346 108.84 127.893 108.84C128.439 108.84 128.964 109.056 129.352 109.441L148.388 128.475C148.966 129.049 149.424 129.732 149.737 130.484C150.05 131.236 150.211 132.043 150.211 132.858C150.211 133.672 150.05 134.479 149.737 135.231C149.424 135.983 148.966 136.666 148.388 137.24Z" fill="#BF8256"/>
<path d="M148.387 137.239L148.237 137.382L123.38 112.491L126.423 109.448C126.811 109.063 127.335 108.847 127.882 108.847C128.429 108.847 128.953 109.063 129.341 109.448L148.387 128.475C148.965 129.049 149.424 129.731 149.737 130.484C150.05 131.236 150.211 132.042 150.211 132.857C150.211 133.672 150.05 134.478 149.737 135.23C149.424 135.982 148.965 136.665 148.387 137.239Z" fill="#DEA47A"/>
<path d="M148.388 137.24L148.1 137.528C146.935 138.683 145.361 139.331 143.721 139.331C142.081 139.331 140.507 138.683 139.343 137.528L120.308 118.486C119.923 118.098 119.707 117.573 119.707 117.026C119.707 116.479 119.923 115.954 120.308 115.566L126.434 109.441C126.822 109.056 127.346 108.84 127.893 108.84C128.439 108.84 128.964 109.056 129.352 109.441L148.388 128.475C148.966 129.049 149.424 129.732 149.737 130.484C150.05 131.236 150.211 132.043 150.211 132.858C150.211 133.672 150.05 134.479 149.737 135.231C149.424 135.983 148.966 136.666 148.388 137.24Z" stroke="#45413C" stroke-width="1.50648" stroke-linecap="round" stroke-linejoin="round"/>
<path d="M65.9638 100.555C70.3896 107.787 77.5072 112.966 85.7508 114.95C93.9943 116.935 102.689 115.563 109.921 111.137C117.154 106.712 122.332 99.5941 124.316 91.3505C126.301 83.1069 124.929 74.4126 120.504 67.1802C116.078 59.9477 108.96 54.7697 100.717 52.7851C92.473 50.8005 83.7787 52.1719 76.5462 56.5977C69.3138 61.0235 64.1357 68.1411 62.1512 76.3847C60.1666 84.6283 61.538 93.3226 65.9638 100.555Z" fill="#F0F0F0" stroke="#45413C" stroke-width="1.50648" stroke-linecap="round" stroke-linejoin="round"/>
<path d="M111.319 65.7845C114.896 69.3614 117.331 73.9186 118.318 78.8797C119.305 83.8408 118.798 88.9831 116.862 93.6563C114.926 98.3295 111.648 102.324 107.443 105.134C103.237 107.944 98.292 109.444 93.2338 109.444C88.1755 109.444 83.2308 107.944 79.0249 105.134C74.8191 102.324 71.541 98.3295 69.6052 93.6563C67.6694 88.9831 67.1628 83.8408 68.1495 78.8797C69.1362 73.9186 71.5718 69.3614 75.1484 65.7845C77.5234 63.4094 80.3429 61.5254 83.446 60.24C86.5491 58.9546 89.875 58.293 93.2338 58.293C96.5925 58.293 99.9184 58.9546 103.022 60.24C106.125 61.5254 108.944 63.4094 111.319 65.7845Z" fill="#EEFF9E"/>
<path d="M75.1488 101.953C70.3525 97.157 67.6581 90.6516 67.6582 83.8684C67.6583 77.0852 70.3531 70.5799 75.1496 65.7836C79.9461 60.9873 86.4515 58.2928 93.2347 58.293C100.018 58.2931 106.523 60.9878 111.319 65.7844L75.1488 101.953Z" fill="#4ACFFF"/>
<path d="M92.6163 96.127C89.6773 96.1435 86.7924 96.9194 84.2416 98.3793C81.6908 99.8392 79.5606 101.934 78.0576 104.459C82.3057 107.587 87.4162 109.326 92.6903 109.438C97.9643 109.55 103.144 108.03 107.521 105.086C106.073 102.39 103.923 100.135 101.3 98.5581C98.6768 96.9813 95.6768 96.1415 92.6163 96.127Z" fill="#F0F0F0"/>
<path d="M92.6163 96.127C89.6773 96.1435 86.7924 96.9194 84.2416 98.3793C81.6908 99.8392 79.5606 101.934 78.0576 104.459C78.8949 105.078 79.7693 105.644 80.6759 106.156C82.2814 104.554 84.193 103.291 86.2966 102.443C88.4003 101.595 90.6531 101.179 92.9209 101.22C95.1887 101.261 97.425 101.758 99.4967 102.681C101.568 103.604 103.433 104.935 104.98 106.594C105.855 106.141 106.704 105.638 107.521 105.088C106.073 102.391 103.924 100.136 101.3 98.5587C98.6771 96.9817 95.677 96.1416 92.6163 96.127Z" fill="white"/>
<path d="M92.6163 96.127C89.6773 96.1435 86.7924 96.9194 84.2416 98.3793C81.6908 99.8392 79.5606 101.934 78.0576 104.459C82.3057 107.587 87.4162 109.326 92.6903 109.438C97.9643 109.55 103.144 108.03 107.521 105.086C106.073 102.39 103.923 100.135 101.3 98.5581C98.6768 96.9813 95.6768 96.1415 92.6163 96.127V96.127Z" stroke="#45413C" stroke-width="1.50648" stroke-linejoin="round"/>
<path d="M97.6699 96.9484C97.3987 96.8621 97.1251 96.7847 96.8489 96.7164C96.5298 96.6358 96.2468 96.4509 96.0448 96.1911C95.8428 95.9312 95.7335 95.6114 95.7341 95.2823V90.1934H89.7428V95.225C89.7427 95.5559 89.6314 95.8772 89.4267 96.1373C89.2221 96.3974 88.936 96.5812 88.6144 96.6592C88.2679 96.7435 87.923 96.8369 87.5825 96.9439L87.5479 96.9891C87.6365 98.2747 88.2098 99.4788 89.1518 100.358C90.0939 101.237 91.3345 101.727 92.6232 101.727C93.9119 101.727 95.1525 101.237 96.0946 100.358C97.0366 99.4788 97.6099 98.2747 97.6985 96.9891L97.6699 96.9484Z" fill="#FFCEBF" stroke="#45413C" stroke-width="1.50648" stroke-linecap="round" stroke-linejoin="round"/>
<path d="M106.106 77.5832C106.106 81.1791 104.677 84.6278 102.135 87.1704C99.5921 89.7131 96.1435 91.1416 92.5476 91.1416C88.9517 91.1416 85.5031 89.7131 82.9604 87.1704C80.4177 84.6278 78.9893 81.1791 78.9893 77.5832C78.9893 70.087 82.8157 64.2057 86.7085 63.0879C87.0328 62.9947 87.3762 62.9904 87.7027 63.0754C88.0292 63.1605 88.3269 63.3318 88.5645 63.5715C92.7796 67.8107 106.106 62.5275 106.106 77.5832Z" fill="#FFDF3D"/>
<path d="M105.96 79.5803C104.443 67.0524 91.278 72.5631 88.033 67.4155C84.1749 67.4155 79.9673 72.5375 79.1448 79.627C79.0434 78.9508 78.9931 78.268 78.9942 77.5842C78.9942 70.088 82.8206 64.2067 86.7134 63.0889C87.0377 62.9956 87.3811 62.9913 87.7076 63.0764C88.0341 63.1615 88.3318 63.3328 88.5694 63.5724C92.7875 67.8102 106.108 62.5269 106.108 77.5827C106.108 78.2513 106.058 78.919 105.96 79.5803Z" fill="#FFEF9E"/>
<path d="M106.106 77.5832C106.106 81.1791 104.677 84.6278 102.135 87.1704C99.5921 89.7131 96.1435 91.1416 92.5476 91.1416C88.9517 91.1416 85.5031 89.7131 82.9604 87.1704C80.4177 84.6278 78.9893 81.1791 78.9893 77.5832C78.9893 70.087 82.8157 64.2057 86.7085 63.0879C87.0328 62.9947 87.3762 62.9904 87.7027 63.0754C88.0292 63.1605 88.3269 63.3318 88.5645 63.5715C92.7796 67.8107 106.106 62.5275 106.106 77.5832Z" stroke="#45413C" stroke-width="1.50648" stroke-linecap="round" stroke-linejoin="round"/>
<path d="M103.858 80.9728L101.581 82.1027L99.9394 76.3569C99.7859 75.8051 99.4272 75.3329 98.9367 75.0371C98.4463 74.7413 97.8612 74.6444 97.3016 74.7661C94.1732 75.5113 90.9135 75.5113 87.7851 74.7661C87.2255 74.6447 86.6406 74.7419 86.1503 75.0376C85.6599 75.3334 85.3011 75.8053 85.1473 76.3569L83.5052 82.1027L81.2636 80.9728C78.0382 80.9728 78.2506 86.6221 81.827 86.6221H81.8375C82.5454 88.9132 83.9685 90.9173 85.8982 92.3408C87.8279 93.7643 90.1627 94.5323 92.5607 94.5323C94.9586 94.5323 97.2935 93.7643 99.2232 92.3408C101.153 90.9173 102.576 88.9132 103.284 86.6221C106.865 86.6221 107.082 80.9728 103.858 80.9728Z" fill="#FFCEBF" stroke="#45413C" stroke-width="1.50648" stroke-linecap="round" stroke-linejoin="round"/>
<path d="M87.709 81.2566C87.709 81.6106 87.8496 81.9501 88.0999 82.2004C88.3502 82.4507 88.6897 82.5914 89.0437 82.5914C89.3977 82.5914 89.7372 82.4507 89.9875 82.2004C90.2378 81.9501 90.3785 81.6106 90.3785 81.2566C90.3785 80.9026 90.2378 80.5631 89.9875 80.3128C89.7372 80.0625 89.3977 79.9219 89.0437 79.9219C88.6897 79.9219 88.3502 80.0625 88.0999 80.3128C87.8496 80.5631 87.709 80.9026 87.709 81.2566Z" fill="#45413C"/>
<path d="M94.7646 81.2566C94.7646 81.6106 94.9053 81.9501 95.1556 82.2004C95.4059 82.4507 95.7454 82.5914 96.0994 82.5914C96.4534 82.5914 96.7929 82.4507 97.0432 82.2004C97.2935 81.9501 97.4341 81.6106 97.4341 81.2566C97.4341 80.9026 97.2935 80.5631 97.0432 80.3128C96.7929 80.0625 96.4534 79.9219 96.0994 79.9219C95.7454 79.9219 95.4059 80.0625 95.1556 80.3128C94.9053 80.5631 94.7646 80.9026 94.7646 81.2566Z" fill="#45413C"/>
<path d="M86.9238 84.3623C86.9238 84.5858 86.8575 84.8043 86.7333 84.9902C86.609 85.176 86.4325 85.3208 86.226 85.4063C86.0194 85.4918 85.7922 85.514 85.5729 85.4703C85.3537 85.4266 85.1524 85.3188 84.9945 85.1607C84.8365 85.0025 84.729 84.8011 84.6856 84.5818C84.6422 84.3625 84.6648 84.1353 84.7505 83.9289C84.8362 83.7224 84.9813 83.5461 85.1673 83.4221C85.3533 83.2981 85.5719 83.2321 85.7954 83.2324C85.9437 83.2324 86.0906 83.2617 86.2276 83.3185C86.3646 83.3753 86.489 83.4585 86.5938 83.5634C86.6986 83.6684 86.7817 83.7929 86.8383 83.93C86.8949 84.0671 86.924 84.214 86.9238 84.3623Z" fill="#FFB59E"/>
<path d="M100.483 84.3623C100.483 84.5857 100.417 84.8042 100.293 84.99C100.169 85.1758 99.9923 85.3206 99.7859 85.4061C99.5794 85.4917 99.3522 85.514 99.1331 85.4704C98.9139 85.4268 98.7126 85.3192 98.5546 85.1612C98.3966 85.0032 98.2889 84.8019 98.2453 84.5827C98.2017 84.3635 98.2241 84.1364 98.3096 83.9299C98.3952 83.7234 98.54 83.547 98.7258 83.4228C98.9116 83.2987 99.13 83.2324 99.3535 83.2324C99.6532 83.2324 99.9405 83.3515 100.152 83.5633C100.364 83.7752 100.483 84.0626 100.483 84.3623Z" fill="#FFB59E"/>
<path d="M89.751 88.0273C90.5874 88.5843 91.5699 88.8815 92.5749 88.8815C93.5798 88.8815 94.5623 88.5843 95.3988 88.0273" stroke="#45413C" stroke-width="1.50648" stroke-linecap="round" stroke-linejoin="round"/>
<path d="M111.319 65.7845C114.896 69.3614 117.331 73.9186 118.318 78.8797C119.305 83.8408 118.798 88.9831 116.862 93.6563C114.926 98.3295 111.648 102.324 107.443 105.134C103.237 107.944 98.292 109.444 93.2338 109.444C88.1755 109.444 83.2308 107.944 79.0249 105.134C74.8191 102.324 71.541 98.3295 69.6052 93.6563C67.6694 88.9831 67.1628 83.8408 68.1495 78.8797C69.1362 73.9186 71.5718 69.3614 75.1484 65.7845C77.5234 63.4094 80.3429 61.5254 83.446 60.24C86.5491 58.9546 89.875 58.293 93.2338 58.293C96.5925 58.293 99.9184 58.9546 103.022 60.24C106.125 61.5254 108.944 63.4094 111.319 65.7845Z" stroke="#45413C" stroke-width="1.50648" stroke-linecap="round" stroke-linejoin="round"/>
<path d="M44.0957 115.002C44.0957 117.804 45.2086 120.49 47.1897 122.471C49.1707 124.452 51.8576 125.565 54.6592 125.565C57.4608 125.565 60.1476 124.452 62.1286 122.471C64.1097 120.49 65.2226 117.804 65.2226 115.002C65.2226 112.2 64.1097 109.513 62.1286 107.532C60.1476 105.551 57.4608 104.438 54.6592 104.438C51.8576 104.438 49.1707 105.551 47.1897 107.532C45.2086 109.513 44.0957 112.2 44.0957 115.002Z" fill="white" stroke="#45413C" stroke-width="1.50648" stroke-linecap="round" stroke-linejoin="round"/>
<path d="M51.2617 114.757C51.2617 115.658 51.6198 116.523 52.2572 117.16C52.8945 117.798 53.759 118.156 54.6603 118.156C55.5617 118.156 56.4262 117.798 57.0635 117.16C57.7009 116.523 58.059 115.658 58.059 114.757V113.058C58.059 112.156 57.7009 111.292 57.0635 110.655C56.4262 110.017 55.5617 109.659 54.6603 109.659C53.759 109.659 52.8945 110.017 52.2572 110.655C51.6198 111.292 51.2617 112.156 51.2617 113.058V114.757Z" fill="#FFCEBF" stroke="#45413C" stroke-width="1.50648" stroke-linecap="round" stroke-linejoin="round"/>
<path d="M61.7223 122.856C59.7836 124.598 57.2693 125.562 54.6629 125.562C52.0565 125.562 49.5422 124.598 47.6035 122.856C48.1836 121.464 49.1626 120.274 50.4172 119.437C51.6718 118.6 53.146 118.153 54.6544 118.151C56.1627 118.15 57.6377 118.595 58.8937 119.43C60.1498 120.265 61.1308 121.453 61.7132 122.844" fill="#FF6242"/>
<path d="M61.7223 122.856C59.7836 124.598 57.2693 125.562 54.6629 125.562C52.0565 125.562 49.5422 124.598 47.6035 122.856C48.1836 121.464 49.1626 120.274 50.4172 119.437C51.6718 118.6 53.146 118.153 54.6544 118.151C56.1627 118.15 57.6377 118.595 58.8937 119.43C60.1498 120.265 61.1308 121.453 61.7132 122.844" stroke="#45413C" stroke-width="1.50648" stroke-linecap="round" stroke-linejoin="round"/>
<path d="M51.2891 112.619C51.3783 111.934 51.6743 111.292 52.1377 110.779C52.6011 110.266 53.2097 109.907 53.8826 109.749C54.5554 109.591 55.2604 109.642 55.9035 109.895C56.5467 110.148 57.0974 110.591 57.4822 111.165C56.678 111.945 55.6773 112.492 54.5866 112.748C53.496 113.004 52.3563 112.96 51.2891 112.619Z" fill="#A86C4D" stroke="#45413C" stroke-width="1.50648" stroke-linecap="round" stroke-linejoin="round"/>
<path d="M25.9492 38.7968C25.9492 41.5984 27.0621 44.2853 29.0432 46.2663C31.0242 48.2474 33.7111 49.3603 36.5127 49.3603C39.3143 49.3603 42.0011 48.2474 43.9822 46.2663C45.9632 44.2853 47.0761 41.5984 47.0761 38.7968C47.0761 35.9952 45.9632 33.3084 43.9822 31.3274C42.0011 29.3463 39.3143 28.2334 36.5127 28.2334C33.7111 28.2334 31.0242 29.3463 29.0432 31.3274C27.0621 33.3084 25.9492 35.9952 25.9492 38.7968Z" fill="white" stroke="#45413C" stroke-width="1.50648" stroke-linecap="round" stroke-linejoin="round"/>
<path d="M33.1123 38.5523C33.131 39.4415 33.4974 40.2879 34.1329 40.9101C34.7683 41.5324 35.6223 41.8808 36.5117 41.8808C37.4011 41.8808 38.255 41.5324 38.8905 40.9101C39.526 40.2879 39.8923 39.4415 39.9111 38.5523V36.853C39.8923 35.9638 39.526 35.1173 38.8905 34.4951C38.255 33.8729 37.4011 33.5244 36.5117 33.5244C35.6223 33.5244 34.7683 33.8729 34.1329 34.4951C33.4974 35.1173 33.131 35.9638 33.1123 36.853V38.5523Z" fill="#FFCEBF" stroke="#45413C" stroke-width="1.50648" stroke-linecap="round" stroke-linejoin="round"/>
<path d="M43.5738 46.6533C41.6347 48.3944 39.1205 49.3575 36.5145 49.3575C33.9084 49.3575 31.3942 48.3944 29.4551 46.6533C30.0352 45.261 31.0141 44.0714 32.2687 43.2342C33.5234 42.3969 34.9976 41.9495 36.5059 41.9482C38.0142 41.947 39.4892 42.3918 40.7453 43.2269C42.0013 44.062 42.9823 45.2499 43.5648 46.6412" fill="#6DD627"/>
<path d="M43.5738 46.6533C41.6347 48.3944 39.1205 49.3575 36.5145 49.3575C33.9084 49.3575 31.3942 48.3944 29.4551 46.6533C30.0352 45.261 31.0141 44.0714 32.2687 43.2342C33.5234 42.3969 34.9976 41.9495 36.5059 41.9482C38.0142 41.947 39.4892 42.3918 40.7453 43.2269C42.0013 44.062 42.9823 45.2499 43.5648 46.6412" stroke="#45413C" stroke-width="1.50648" stroke-linecap="round" stroke-linejoin="round"/>
<path d="M33.1426 36.4134C33.2313 35.7277 33.5271 35.0854 33.9905 34.5723C34.4539 34.0592 35.0629 33.6997 35.7361 33.5419C36.4092 33.384 37.1145 33.4353 37.7577 33.6889C38.4009 33.9426 38.9514 34.3864 39.3357 34.9612C38.5313 35.7407 37.5305 36.2875 36.4399 36.5432C35.3493 36.7989 34.2097 36.7541 33.1426 36.4134Z" fill="#A86C4D" stroke="#45413C" stroke-width="1.50648" stroke-linecap="round" stroke-linejoin="round"/>
</g>
<defs>
<clipPath id="clip0_1325_1184">
<rect width="150.648" height="150.648" fill="white"/>
</clipPath>
</defs>
</svg>
