<svg width="151" height="151" viewBox="0 0 151 151" fill="none" xmlns="http://www.w3.org/2000/svg">
<path d="M138.017 23.3055C138.002 22.0187 137.554 20.7744 136.745 19.7738C135.936 18.7732 134.813 18.0749 133.557 17.7918H85.1918C84.3748 17.602 83.5253 17.6006 82.7077 17.7877C81.8901 17.9748 81.1257 18.3455 80.4725 18.8717C79.8193 19.3978 79.2944 20.0657 78.9375 20.8248C78.5807 21.5838 78.4012 22.4141 78.4126 23.2528L78.503 30.032C79.3946 29.6548 80.3047 29.3229 81.2297 29.0377L81.1921 25.9268C81.1921 22.831 83.0677 20.8048 86.9996 20.7897C86.9996 20.7897 125.535 20.7144 130.236 21.1965C133.806 21.558 134.145 23.5993 134.167 25.8891L135.584 114.297C135.589 115.027 135.431 115.749 135.121 116.41C134.81 117.071 134.356 117.654 133.791 118.116C133.226 118.578 132.565 118.908 131.856 119.082C131.147 119.255 130.408 119.267 129.693 119.118L86.2991 117.709C85.2054 117.493 84.2189 116.908 83.5036 116.053C82.7882 115.198 82.3872 114.124 82.3671 113.009L81.7947 68.5678C80.8501 68.2187 79.9292 67.8085 79.0378 67.34L79.7459 122.123C79.7601 123.4 80.21 124.633 81.0209 125.62C81.8318 126.606 82.9552 127.286 84.205 127.546L132.571 130.379C133.39 130.546 134.236 130.528 135.047 130.326C135.858 130.124 136.614 129.743 137.258 129.21C137.903 128.678 138.42 128.008 138.771 127.249C139.123 126.491 139.3 125.663 139.29 124.827L138.017 23.3055Z" fill="#DFEDED"/>
<path d="M139.349 124.827L138.016 23.3051C138.016 20.6311 136.419 18.0324 133.557 17.7914C130.695 17.5503 85.1913 17.7914 85.1913 17.7914C82.1105 17.7914 81.3272 17.9646 80.0542 19.2978C82.2386 16.9251 83.5643 15.6898 88.965 15.6145C88.965 15.6145 129.452 15.2002 137.346 15.8179C141.112 16.1192 141.805 18.6049 141.805 21.2337L143.116 122.718C143.116 125.467 139.394 128.879 136.065 130.002C137.056 129.551 137.894 128.822 138.477 127.903C139.061 126.984 139.364 125.915 139.349 124.827Z" fill="#B7B7B7"/>
<path d="M134.635 25.8899C134.635 23.6302 134.251 21.152 130.304 20.7528C125.634 20.2707 88.5969 20.3461 87.0226 20.3461C83.0455 20.3461 80.7632 22.3873 80.7632 25.9276L80.8084 29.1816L81.6972 28.9029V25.9276C81.6972 22.9146 83.6029 21.25 87.0678 21.2424C87.452 21.2424 125.626 21.1671 130.251 21.6341C133.482 21.9655 133.761 23.6905 133.784 25.8975L135.147 114.298C135.151 114.961 135.006 115.617 134.724 116.217C134.442 116.818 134.029 117.347 133.515 117.767C133.002 118.188 132.401 118.488 131.757 118.646C131.113 118.804 130.441 118.816 129.792 118.682C129.716 118.682 131.637 118.734 86.3899 117.273C85.3898 117.077 84.4867 116.546 83.8304 115.766C83.1741 114.986 82.8042 114.006 82.7819 112.987L82.2094 68.6665C81.9081 68.561 81.6068 68.4556 81.313 68.335L81.893 112.995C81.9232 114.22 82.3725 115.399 83.1661 116.334C83.9597 117.269 85.0496 117.903 86.2543 118.132L129.611 119.54C130.389 119.696 131.191 119.676 131.96 119.483C132.73 119.289 133.446 118.927 134.058 118.422C134.669 117.917 135.161 117.282 135.497 116.564C135.832 115.845 136.004 115.061 135.998 114.268L134.635 25.8899Z" fill="#7F7F7F"/>
<path d="M106.381 37.5265C103.661 35.1538 101.221 34.1595 98.3209 33.1125C91.7978 30.9809 84.0545 30.9131 77.9834 34.4759C72.8162 37.4889 68.3193 44.8179 68.372 50.8288C68.4534 53.3221 69.0277 55.7747 70.062 58.045C71.0963 60.3152 72.5699 62.358 74.398 64.0557C84.5893 73.7197 105.507 71.9873 110.81 57.8113C113.265 51.3184 111.676 42.2343 106.381 37.5265ZM84.5366 60.523C84.3385 60.9594 84.0501 61.3489 83.6905 61.6657C83.3308 61.9825 82.9081 62.2195 82.4501 62.3609C81.8993 62.4201 81.3434 62.3124 80.8545 62.0519C80.3656 61.7913 79.9663 61.3899 79.7083 60.8996C79.197 59.9096 78.8944 58.8251 78.8195 57.7134C79.4447 58.1352 80.326 59.1747 82.1714 59.2199C83.3474 59.2421 84.506 58.9342 85.5158 58.331C85.233 59.0828 84.9008 59.815 84.5215 60.523H84.5366Z" fill="#FFF4EE"/>
<path d="M142.249 21.204C142.249 18.8614 141.744 15.7053 137.383 15.3438C129.549 14.7563 89.3713 15.1329 88.9645 15.1404C85.0778 15.1931 83.2098 15.8409 81.6581 17.0762C80.1064 18.3116 78.5246 20.0064 78.1179 21.9271C77.9295 22.8536 77.9823 22.7783 78.1179 30.2128C78.4116 30.0772 78.7054 29.9567 79.0067 29.8361L78.9238 23.2302C78.8711 19.931 81.048 18.2438 85.1305 18.1082C85.3716 18.1082 93.4689 18.2212 133.549 18.2212C134.697 18.5015 135.718 19.1597 136.448 20.0899C137.177 21.0202 137.573 22.1686 137.571 23.3507C138.935 132.089 138.919 125.121 138.746 125.965C138.605 126.633 138.333 127.267 137.945 127.829C137.557 128.391 137.062 128.871 136.487 129.24C135.913 129.609 135.271 129.861 134.598 129.98C133.926 130.099 133.236 130.084 132.57 129.934L84.2342 127.072C83.0859 126.83 82.0541 126.204 81.3081 125.298C80.5622 124.392 80.1464 123.259 80.129 122.086L79.4285 67.5358C79.1222 67.3852 78.8209 67.227 78.5246 67.0613L79.2402 122.093C79.2625 123.479 79.758 124.816 80.6444 125.882C81.5308 126.948 82.7549 127.679 84.1137 127.953L132.457 130.816C134.362 131.207 136.584 130.439 138.287 129.46C141.051 127.855 143.559 125.114 143.559 122.681L142.249 21.204ZM138.852 128.051C139.51 126.991 139.813 125.748 139.718 124.503C139.718 120.142 139.454 102.079 138.46 23.298C138.445 21.9216 137.959 20.5917 137.084 19.5296C136.208 18.4676 134.995 17.7373 133.647 17.4604C132.803 17.2872 82.8934 17.3173 82.6147 17.3775C83.9781 16.4812 85.6804 16.0744 88.9721 16.0292C89.3788 16.0292 129.519 15.6451 137.308 16.2326C140.87 16.5264 141.36 18.7936 141.36 21.2115L142.671 122.718C142.671 124.503 140.946 126.59 138.852 128.051Z" fill="#7F7F7F"/>
<path d="M111.014 123.2C110.434 118.786 104.031 118.899 104.626 124.044C105.176 128.736 111.767 128.051 111.014 123.2ZM105.515 123.953C104.995 119.931 109.703 120.104 110.133 123.351C110.66 126.695 105.967 127.456 105.515 123.931V123.953Z" fill="#7F7F7F"/>
<path d="M98.8849 87.3768C99.3596 88.9219 100.049 90.3926 100.934 91.7456C104.497 97.0182 112.684 96.265 115.373 90.3295C115.607 89.8097 114.839 89.3578 114.62 89.8775C114.133 91.0153 113.371 92.0142 112.402 92.7842C111.433 93.5542 110.287 94.0712 109.069 94.2886C107.85 94.506 106.597 94.417 105.422 94.0296C104.246 93.6422 103.185 92.9686 102.335 92.0694C101.145 90.621 100.263 88.9447 99.7436 87.1433C99.5403 86.6085 98.6816 86.842 98.8473 87.3843L98.8849 87.3768Z" fill="#ABFFE1"/>
<path d="M112.774 63.1069C114.545 63.7022 116.039 64.9199 116.98 66.5338C117.921 68.1477 118.244 70.0481 117.889 71.8821C117.783 72.4471 118.642 72.6806 118.785 72.1232C119.193 70.0607 118.836 67.9203 117.781 66.1017C116.727 64.2831 115.046 62.9106 113.053 62.2406C112.503 62.0599 112.262 62.9186 112.812 63.137L112.774 63.1069Z" fill="#ABFFE1"/>
<path d="M120.76 66.7977C121.952 70.4391 122.259 74.3124 121.656 78.0963C121.313 81.6597 120.29 85.1244 118.643 88.3027C117.711 90.0379 116.542 91.635 115.171 93.0481C114.779 93.4549 115.404 94.0951 115.803 93.6809C119.826 89.4928 121.588 84.642 122.394 79.0153C123.019 74.6389 123.057 70.5262 121.641 66.5265C121.453 65.9917 120.579 66.2252 120.752 66.76L120.76 66.7977Z" fill="#ABFFE1"/>
<path d="M95.1801 83.6633C95.3534 87.3617 95.9333 91.1204 98.1931 94.2087C100.453 97.297 103.865 99.745 107.752 98.8185C108.309 98.6829 108.068 97.8016 107.518 97.9221C103.835 98.7281 100.536 96.1445 98.5998 93.2671C96.664 90.3897 96.1292 87.0303 96.0539 83.6407C96.0539 83.5228 96.007 83.4098 95.9237 83.3265C95.8404 83.2431 95.7273 83.1963 95.6095 83.1963C95.4916 83.1963 95.3786 83.2431 95.2952 83.3265C95.2119 83.4098 95.165 83.5228 95.165 83.6407L95.1801 83.6633Z" fill="#ABFFE1"/>
<path d="M99.1334 103.533C101.752 105.432 104.942 106.375 108.172 106.207C111.535 105.814 114.653 104.255 116.985 101.801C119.559 99.0467 121.586 95.8285 122.958 92.3175C123.169 91.7902 122.303 91.5642 122.062 92.084C119.591 97.6655 115.682 103.857 109.257 105.123C102.832 106.388 96.8661 101.808 94.1921 96.3473C92.5591 92.9618 91.573 89.301 91.2846 85.5534C91.2394 84.9809 90.3431 84.9809 90.3958 85.5534C90.554 85.9375 90.8176 97.5902 99.1334 103.533Z" fill="#ABFFE1"/>
<path d="M116.142 55.3277C121.663 56.0132 124.541 61.8885 125.331 66.7921C125.595 68.4718 125.708 70.1741 125.836 71.8689C125.836 71.9868 125.883 72.0998 125.966 72.1832C126.05 72.2665 126.163 72.3133 126.281 72.3133C126.398 72.3133 126.511 72.2665 126.595 72.1832C126.678 72.0998 126.725 71.9868 126.725 71.8689C126.682 68.9684 126.233 66.0883 125.392 63.3121C124.573 60.5557 122.934 58.1145 120.691 56.3145C119.384 55.2873 117.822 54.6363 116.172 54.4314C115.584 54.3636 115.585 55.26 116.142 55.3277Z" fill="#ABFFE1"/>
<path d="M117.19 66.8204C117.068 66.645 116.915 66.4942 116.738 66.3759C111.465 65.8863 108.776 65.0728 106.659 64.2217C101.741 69.0048 94.2083 70.8427 87.1504 69.871C87.3236 70.5564 87.527 71.2343 87.753 71.8972C82.7967 75.6634 77.298 78.6764 72.1157 82.1111C71.7904 82.2938 71.5139 82.5522 71.3097 82.8644C71.1342 83.2549 71.1145 83.6977 71.2545 84.1023C71.3945 84.5069 71.6837 84.8427 72.063 85.0413C72.8537 85.4057 73.7387 85.5137 74.5939 85.3501C80.5369 84.7324 85.8322 81.5839 90.8488 78.232C91.5666 79.2918 92.3595 80.2987 93.2215 81.2449C97.8464 86.2841 103.993 90.329 105.725 90.9542H105.786C106.241 91.1476 106.732 91.2429 107.226 91.2339C107.721 91.2248 108.208 91.1115 108.655 90.9015C109.477 90.4116 110.196 89.7669 110.772 89.0033C118.116 80.3636 118.734 69.5848 117.19 66.8204Z" fill="#FFFDA9"/>
<path d="M103.947 75.1738C103.691 75.2793 103.42 75.3772 103.194 75.4601C102.012 75.6964 100.904 76.213 99.9628 76.9665C99.7163 77.1744 99.5278 77.4424 99.4156 77.7447C99.3034 78.047 99.2713 78.3731 99.3225 78.6915C99.7218 80.3863 103.089 80.3335 104.768 80.1979C105.371 78.3374 105.394 76.266 103.947 75.1738Z" fill="#FFF4EE"/>
<path d="M75.0527 80.168C71.6857 82.3072 71.6029 82.3674 71.2865 82.8118C71.1072 83.2018 71.0854 83.646 71.2258 84.0516C71.3661 84.4572 71.6578 84.793 72.0397 84.9887C72.8283 85.3608 73.7157 85.469 74.5706 85.2975C75.4291 85.2058 76.2817 85.065 77.1241 84.8757C77.2877 83.9739 77.1779 83.0438 76.8088 82.2049C76.4397 81.3659 75.8281 80.6566 75.0527 80.168Z" fill="#FFF4EE"/>
<path d="M50.3992 112.355C43.5297 114.908 35.8918 114.411 28.9469 111.888C28.8473 112.16 28.7668 112.44 28.7059 112.724C28.4352 113.46 28.006 114.128 27.4485 114.679C26.8911 115.231 26.2191 115.653 25.4802 115.916C24.7413 116.18 23.9536 116.277 23.1729 116.202C22.3922 116.126 21.6376 115.88 20.9626 115.481C20.6544 116.208 20.1481 116.835 19.5013 117.288C17.9948 118.23 15.6522 117.951 14.8237 119.548C14.6401 119.95 14.5691 120.394 14.6181 120.833C14.6672 121.272 14.8346 121.69 15.1024 122.041C16.3979 123.834 19.7348 124.256 21.7535 123.992C23.8713 123.719 25.8486 122.783 27.4028 121.318C27.7856 120.866 28.2676 120.507 28.8114 120.271C30.6417 119.721 34.4456 121.559 36.276 122.011C37.1344 122.17 37.9503 122.506 38.6713 122.998C40.1778 124.188 40.1778 126.342 40.5468 128.188C40.8394 129.633 41.3688 131.02 42.1136 132.293C42.612 133.193 43.343 133.942 44.2302 134.462C44.6798 134.706 45.1898 134.816 45.6998 134.778C46.2098 134.741 46.6983 134.558 47.1076 134.251C47.7057 133.609 48.0693 132.784 48.1395 131.909C49.2166 125.484 49.646 118.87 50.4444 112.37L50.3992 112.355Z" fill="#ABFFE1"/>
<path d="M42.0311 89.8986C41.7983 91.0122 41.4157 92.0891 40.8937 93.0999C39.7713 95.2466 37.1275 96.5949 36.4345 98.8772C35.9524 100.542 36.8488 102.252 36.8488 104.029C36.8455 105.309 36.4111 106.549 35.6156 107.551C34.8201 108.553 33.7101 109.258 32.4649 109.551C31.5761 109.746 30.5065 109.739 29.7909 110.379C29.4363 110.837 29.1519 111.344 28.9473 111.886C35.8921 114.409 43.53 114.899 50.3996 112.353C50.9217 112.258 51.3957 111.988 51.7425 111.586C52.0893 111.184 52.2879 110.676 52.3053 110.146C53.784 102.122 53.3426 93.8623 51.0172 86.042C48.2941 87.8869 45.2443 89.1957 42.0311 89.8986Z" fill="#FFFDA9"/>
<path d="M52.9081 55.5753C52.8181 55.8536 52.6305 56.0899 52.38 56.2408C52.1294 56.3916 51.8328 56.4469 51.5448 56.3964C50.9949 56.2005 50.6559 55.5979 50.1061 55.5C50.6409 58.4376 48.8256 62.0005 47.1684 64.3054C45.7963 66.1761 44.5386 68.128 43.4022 70.1505C42.955 69.8744 42.4301 69.7515 41.9068 69.8005C41.3836 69.8494 40.8905 70.0675 40.5022 70.4217C38.7547 72.3801 38.8752 76.3271 41.2931 78.5567C41.489 83.0761 42.9051 85.9008 42.0464 89.9005C60.5912 85.5242 63.9657 66.9869 52.9081 55.5753Z" fill="#FFD6AE"/>
<path d="M52.0188 52.9613C49.0058 49.4211 45.3903 47.9749 41.0591 47.0032C36.942 46.3248 32.724 46.6009 28.7304 47.8102C24.7368 49.0195 21.0742 51.1298 18.025 53.9782C17.3396 54.6486 16.6767 55.3566 16.044 56.0873C14.7887 56.1037 13.557 56.4314 12.4596 57.0411C11.3621 57.6508 10.4331 58.5234 9.75596 59.5805C9.0788 60.6377 8.67464 61.8464 8.57972 63.0983C8.4848 64.3501 8.70209 65.606 9.21211 66.7532C9.43438 67.2651 9.72584 67.7441 10.0783 68.1768C9.14432 74.0596 10.583 80.1157 9.15938 85.7725C8.34588 88.9587 7.0955 92.74 9.47574 95.5646C10.6508 96.9732 12.5866 97.8243 13.1817 99.5568C13.9349 101.817 12.1272 104.536 13.4303 106.509C14.1981 107.434 15.2997 108.019 16.4959 108.136C17.6752 108.271 18.8139 108.648 19.8403 109.243C21.5577 110.449 20.7367 114.516 18.8009 113.01C19.2339 113.982 19.9471 114.803 20.8492 115.367C21.7513 115.932 22.8014 116.214 23.865 116.179C24.9286 116.143 25.9574 115.791 26.8198 115.167C27.6822 114.544 28.3389 113.677 28.706 112.678C28.8821 111.824 29.2534 111.022 29.7906 110.336C30.5439 109.695 31.5758 109.703 32.4646 109.507C33.7099 109.214 34.8199 108.51 35.6153 107.508C36.4108 106.506 36.8453 105.265 36.8485 103.986C36.8485 102.208 35.9522 100.498 36.4342 98.8337C37.0895 96.574 39.7711 95.2031 40.8934 93.0563C43.6653 87.6857 41.4885 83.8065 41.2625 78.5113C38.8446 76.2515 38.7241 72.3347 40.4716 70.3763C40.8598 70.022 41.3529 69.8039 41.8762 69.755C42.3994 69.7061 42.9244 69.829 43.3716 70.1051C44.508 68.0826 45.7657 66.1306 47.1378 64.2599C48.7949 61.955 50.6102 58.3922 50.0754 55.4546C50.6253 55.5525 50.9642 56.1551 51.5141 56.3509C52.2673 56.5618 53.0206 55.7559 53.0206 54.9649C52.9275 54.2016 52.5736 53.4938 52.0188 52.9613Z" fill="#FFAAD7"/>
<path d="M52.11 70.4213C54.0944 70.4213 55.703 68.8126 55.703 66.8283C55.703 64.844 54.0944 63.2354 52.11 63.2354C50.1257 63.2354 48.5171 64.844 48.5171 66.8283C48.5171 68.8126 50.1257 70.4213 52.11 70.4213Z" fill="#FFAF9C"/>
<path d="M23.6738 61.3365C23.5711 59.6642 22.9137 58.0739 21.8058 56.8171C20.465 55.3106 18.1902 55.3633 17.5801 56.2521C18.2693 56.385 18.902 56.724 19.3943 57.2244C19.8866 57.7248 20.2153 58.3629 20.3369 59.0542C20.8717 62.15 20.6081 65.404 18.9811 68.0554C18.4358 68.9588 17.6369 69.6817 16.6837 70.1344C16.4979 70.1946 16.3021 70.2473 16.0962 70.2925C18.0019 71.2567 21.1956 70.3829 22.6494 67.7089C23.6748 65.7527 24.0345 63.5155 23.6738 61.3365Z" fill="#FEDAF6"/>
<path d="M51.0768 95.6996C56.2139 93.8467 67.3995 90.1708 71.1055 86.3067C72.0093 85.3727 72.8756 83.8436 72.0018 82.8041C71.3314 82.0132 70.0961 82.0509 69.0792 82.2844C62.3431 83.7583 55.8314 86.1163 49.7134 89.2971C48.0638 92.649 51.0768 95.6996 51.0768 95.6996Z" fill="#FFD6AE"/>
<path d="M71.3319 41.3609C70.9203 40.6841 70.625 39.9432 70.4581 39.1689C67.3295 43.9167 65.9133 49.5894 66.4433 55.2506C66.7046 57.7528 67.8159 60.0897 69.5919 61.8716C70.7629 62.8933 72.2635 63.4577 73.8176 63.461C70.4793 60.0844 68.535 55.5745 68.3716 50.8291C68.4855 47.4637 69.5085 44.1918 71.3319 41.3609Z" fill="#FEDAF6"/>
<path d="M73.5312 53.7734C72.8596 53.3158 72.0516 53.1021 71.2416 53.1679C70.4316 53.2337 69.6685 53.575 69.0796 54.135C69.3198 56.3341 70.0592 58.4493 71.2414 60.3191C72.0337 60.3873 72.8262 60.189 73.493 59.7556C74.1598 59.3223 74.6629 58.6787 74.9224 57.927C75.1819 57.1752 75.183 56.3584 74.9255 55.6059C74.6681 54.8535 74.1668 54.2086 73.5011 53.7734H73.5312Z" fill="#FFCECC"/>
<path d="M93.2502 61.5629C95.2345 61.5629 96.8431 59.9542 96.8431 57.9699C96.8431 55.9856 95.2345 54.377 93.2502 54.377C91.2659 54.377 89.6572 55.9856 89.6572 57.9699C89.6572 59.9542 91.2659 61.5629 93.2502 61.5629Z" fill="#FFCECC"/>
<path d="M75.7009 45.3983C85.9525 50.6709 93.5527 44.1027 101.243 46.9876C102.931 47.611 104.414 48.6873 105.531 50.0985C106.647 51.5096 107.353 53.201 107.571 54.987C107.758 56.8077 107.362 58.6409 106.44 60.2221C105.518 61.8033 104.118 63.0508 102.441 63.7849C104.761 65.9467 108.685 65.6303 111.171 63.6869C113.657 61.7436 114.937 58.595 115.442 55.4691C116.978 45.7749 111.48 35.576 102.893 30.8833C94.306 26.1906 83.1881 26.8459 74.8121 31.9529C73.0269 33.0376 71.3848 34.2804 70.6467 36.3292C69.2984 40.0427 72.6428 43.8315 75.7009 45.3983Z" fill="#FEDAF6"/>
<path d="M116.82 65.6761C114.535 65.7136 112.255 65.4451 110.041 64.8776C113.054 63.4389 114.816 60.2753 115.6 57.0138C118.379 43.9978 109.709 31.3584 97.1077 28.1195C90.4334 26.4994 83.4046 27.2311 77.2071 30.1909C74.4427 31.5015 71.1811 33.2867 70.2019 36.4353C69.9277 37.2757 69.863 38.1704 70.0136 39.0415C67.9164 42.3579 66.5432 46.0797 65.9838 49.9635C65.464 54.0611 65.9838 59.2133 69.2152 62.1358C70.417 63.2257 71.9697 63.8484 73.5915 63.8909C77.1693 67.3901 81.7826 69.6387 86.7431 70.301C86.8787 70.7981 87.0293 71.2877 87.1875 71.8074C82.3065 75.4381 76.9359 78.338 71.9042 81.7578C71.7655 81.8298 71.6342 81.9156 71.5126 82.0139C70.9493 81.786 70.3334 81.7207 69.7349 81.8255C64.9142 82.5185 56.6662 85.5917 51.9961 87.7761C51.8605 87.274 51.7174 86.7467 51.5667 86.1943C54.1096 84.3718 56.1699 81.9568 57.569 79.1585C58.9682 76.3603 59.664 73.2631 59.5963 70.1352L59.8901 70.0524C62.549 69.1937 63.7466 65.5329 62.5641 61.9023C61.3815 58.2717 58.2555 56.012 55.6041 56.8782C55.3559 56.9603 55.1163 57.0663 54.8885 57.1946C54.417 56.584 53.9141 55.9982 53.3821 55.4395C53.4481 54.9753 53.4049 54.502 53.2558 54.0574C53.1067 53.6128 52.8559 53.2091 52.5234 52.8785C48.6216 47.9297 39.7183 44.5552 30.4383 46.8526C24.6975 48.1128 19.5354 51.2382 15.7577 55.7408C13.7534 55.8252 11.8551 56.6637 10.4429 58.0885C9.03073 59.5132 8.20903 61.4189 8.14242 63.4239C8.0263 65.1632 8.53073 66.8874 9.56604 68.2898C8.8128 72.9674 9.49072 77.6451 9.18189 81.9385C9.0177 83.6984 8.69757 85.4402 8.22528 87.1434C7.47204 89.9455 6.91464 93.1693 8.78267 95.6475C9.67903 96.8075 10.9294 97.5231 11.886 98.5927C14.0855 100.996 11.3663 104.061 12.8351 106.675C13.5281 107.918 15.0948 108.438 16.3979 108.671C17.701 108.905 19.4787 109.048 20.0135 110.366C20.1883 110.76 20.256 111.193 20.2097 111.622C20.1634 112.05 20.0048 112.459 19.7499 112.806C19.4712 113.062 19.1774 112.897 18.861 112.686C18.5447 112.475 18.1078 112.942 18.2584 113.303C18.7132 114.304 19.4484 115.152 20.375 115.744C20.1346 116.191 19.8037 116.584 19.4034 116.896C18.8386 117.257 18.2134 117.512 17.5579 117.65C16.4507 117.928 15.2003 118.207 14.545 119.231C14.2346 119.807 14.1233 120.47 14.2282 121.115C14.3331 121.761 14.6483 122.354 15.125 122.802C17.4675 125.062 22.8155 125.288 26.3633 122.802C26.9981 122.349 27.5951 121.845 28.1485 121.295C28.3711 121.079 28.64 120.915 28.9348 120.818C29.2297 120.72 29.5428 120.69 29.8508 120.73C32.2009 121.002 33.2329 121.619 35.3796 122.312C37.2853 122.93 39.063 122.817 39.7333 126.267C39.946 127.845 40.3195 129.397 40.8481 130.899C41.3506 132.335 42.2331 133.608 43.4016 134.583C43.9355 135.016 44.5919 135.271 45.2785 135.312C45.965 135.352 46.6469 135.176 47.2281 134.808C48.4935 133.859 48.5688 132.014 48.7873 130.598C49.774 124.06 50.2938 117.507 50.8436 112.754C51.3506 112.565 51.8051 112.257 52.1693 111.857C52.5143 111.348 52.7266 110.76 52.787 110.147C53.6618 105.332 53.8545 100.418 53.3595 95.5496C56.0962 94.5754 58.8104 93.556 61.502 92.4914C64.6124 91.341 67.5578 89.786 70.2622 87.8665C71.0623 87.2949 71.7493 86.5798 72.2884 85.7575C73.0451 85.9957 73.8459 86.06 74.631 85.9458C77.7019 85.5741 80.6843 84.6692 83.4439 83.2718C85.9851 81.9784 88.4498 80.5399 90.8257 78.9632C94.5919 84.3037 99.8645 88.3034 105.574 91.4972C106.079 91.7759 106.531 91.0075 106.034 90.7439C97.8082 86.1265 90.2155 79.6261 87.6997 70.5721C94.6521 71.3706 101.175 69.4347 105.695 65.789C106.682 65.9 107.682 65.8208 108.64 65.5555C111.294 66.368 114.059 66.7594 116.835 66.7155C116.894 66.7166 116.952 66.7058 117.006 66.6838C117.061 66.6618 117.11 66.6291 117.152 66.5876C117.193 66.5462 117.226 66.4968 117.248 66.4424C117.27 66.388 117.28 66.3298 117.279 66.2711C117.305 66.2006 117.313 66.1247 117.301 66.0505C117.29 65.9764 117.26 65.9063 117.214 65.8469C117.168 65.7874 117.108 65.7406 117.039 65.7108C116.97 65.6809 116.895 65.669 116.82 65.6761ZM58.5794 72.9825C58.1357 73.2156 57.6369 73.3234 57.1365 73.2942C56.6362 73.265 56.1533 73.0999 55.7397 72.8168C55.6377 72.7595 55.5172 72.7448 55.4044 72.7758C55.2915 72.8069 55.1955 72.8811 55.1371 72.9825C55.1064 73.032 55.0861 73.0873 55.0774 73.145C55.0687 73.2026 55.0719 73.2614 55.0867 73.3178C55.1015 73.3742 55.1276 73.4269 55.1635 73.4729C55.1994 73.5189 55.2442 73.557 55.2953 73.5851C55.7547 73.8905 56.277 74.0884 56.8234 74.1641C57.3699 74.2397 57.9263 74.1911 58.4514 74.022C57.9602 76.4879 56.9723 78.828 55.5479 80.8999C54.1234 82.9719 52.2922 84.7322 50.1657 86.0738C47.781 87.5594 45.1821 88.6696 42.4601 89.3655C43.0024 85.9533 41.8801 82.5863 41.624 79.3097C41.9175 79.4644 42.2286 79.5833 42.5505 79.6637C41.752 81.4263 42.1136 83.6484 44.0042 84.3112C46.6556 85.0645 48.5237 81.0648 46.2639 78.6243C46.3627 78.5136 46.4558 78.398 46.5426 78.2778C46.8439 77.7882 46.0756 77.3814 45.7894 77.8183C45.7308 77.9018 45.668 77.9823 45.6011 78.0593C45.4936 77.9828 45.3803 77.9148 45.2621 77.856C44.7424 77.5999 44.298 78.3606 44.8102 78.6092H44.8629C44.1759 78.9209 43.401 78.9799 42.6747 78.776C41.9485 78.572 41.3176 78.1181 40.8933 77.4944C40.2364 76.5331 39.868 75.4041 39.8313 74.2404C39.6592 73.0597 39.9448 71.858 40.6297 70.881C41.2473 70.1277 42.6936 69.7436 43.3715 70.655C43.4219 70.7211 43.4885 70.773 43.5649 70.8057C43.6413 70.8385 43.7249 70.8509 43.8075 70.8418C43.8902 70.8327 43.969 70.8024 44.0365 70.7538C44.1039 70.7053 44.1577 70.6401 44.1925 70.5646C44.3356 70.2407 43.9364 70.0449 43.8611 69.9469C43.9891 69.7285 44.1172 69.5025 44.2528 69.2841L53.2314 64.9605C53.5021 65.1545 53.8201 65.2719 54.152 65.3005C54.4838 65.329 54.8172 65.2676 55.117 65.1227C55.4169 64.9777 55.6722 64.7547 55.856 64.4769C56.0398 64.1992 56.1453 63.877 56.1615 63.5444L57.2462 63.0322C58.5589 66.1737 59.0188 69.6062 58.5794 72.9825ZM43.4393 79.8445C44.1966 79.8731 44.9434 79.6593 45.5709 79.2344C45.9901 79.6651 46.2646 80.2158 46.3564 80.8097C46.4482 81.4037 46.3527 82.0115 46.0832 82.5486C45.9502 82.857 45.7275 83.1182 45.444 83.2983C45.1606 83.4783 44.8294 83.5688 44.4938 83.558C44.1582 83.4935 43.848 83.3345 43.5998 83.0996C43.3516 82.8647 43.1757 82.5638 43.0928 82.2323C42.9101 81.4209 43.0335 80.5705 43.4393 79.8445ZM59.5586 69.2991C59.4005 67.0472 58.8923 64.8337 58.0521 62.7384L61.3061 61.1717C62.6695 63.9813 62.4511 68.3124 59.5586 69.2238V69.2991ZM60.8542 60.3883L57.6755 61.8948C57.056 60.5141 56.2989 59.1993 55.4158 57.9704C57.4044 56.8782 59.6264 58.3546 60.8542 60.313V60.3883ZM52.9376 56.2229C54.5767 58.0062 55.9194 60.0406 56.9148 62.2488L55.9355 62.7234C55.7228 62.2799 55.3426 61.9391 54.8785 61.7759C54.4145 61.6127 53.9046 61.6406 53.4611 61.8534C53.0177 62.0661 52.6768 62.4463 52.5137 62.9104C52.3505 63.3744 52.3784 63.8843 52.5912 64.3278L45.1039 67.9433C46.8665 65.2467 48.3203 63.4766 49.3823 61.1641V61.4654C49.3862 61.5834 49.4353 61.6953 49.5194 61.7781C49.6036 61.8608 49.7163 61.908 49.8343 61.9099C49.9522 61.9099 50.0652 61.863 50.1485 61.7797C50.2319 61.6964 50.2787 61.5833 50.2787 61.4654C50.2939 60.891 50.4672 60.3319 50.7795 59.8495C51.0918 59.3672 51.531 58.9802 52.0488 58.7312C52.9602 58.0834 51.981 57.7972 51.7475 57.9026C51.0893 58.1823 50.5174 58.632 50.0904 59.2057C50.3733 58.2429 50.5004 57.241 50.467 56.238C50.6205 56.4163 50.8106 56.5594 51.0245 56.6576C51.2383 56.7557 51.4708 56.8065 51.7061 56.8065C51.9414 56.8065 52.1739 56.7557 52.3877 56.6576C52.6016 56.5594 52.7917 56.4163 52.9452 56.238L52.9376 56.2229ZM9.03878 64.1319C8.95479 63.0167 9.13646 61.8974 9.56888 60.866C10.0013 59.8346 10.6722 58.9204 11.5264 58.1986C12.3806 57.4767 13.3938 56.9676 14.4829 56.7132C15.5719 56.4588 16.7058 56.4663 17.7914 56.7351C18.315 56.8553 18.7923 57.125 19.1654 57.5115C19.5385 57.898 19.7913 58.3845 19.893 58.912C20.3002 61.0065 20.254 63.164 19.7574 65.2392C19.4285 66.577 18.759 67.807 17.814 68.8095C17.3045 69.3165 16.6656 69.6739 15.9669 69.8426C15.2683 70.0112 14.5367 69.9848 13.852 69.7662C12.414 69.5089 11.1184 68.7379 10.2063 67.5968C9.49777 66.5753 9.09298 65.374 9.03878 64.1319ZM18.6803 56.0873C20.5558 55.8086 22.1828 57.3904 22.7779 59.1756C23.6442 61.6163 23.6175 64.2851 22.7026 66.708C21.8966 68.7417 19.7574 70.4742 17.4675 70.2256C18.6081 69.5096 19.4978 68.4567 20.0135 67.2127C21.4221 64.0867 21.8966 57.0966 18.6426 56.0873H18.6803ZM19.8101 113.778C19.9999 113.747 20.1813 113.678 20.3432 113.574C20.5052 113.47 20.6442 113.335 20.7517 113.175C20.9975 112.779 21.1604 112.337 21.2303 111.876C21.3002 111.415 21.2757 110.945 21.1584 110.494C20.4052 107.428 16.4883 108.37 14.447 106.931C13.1213 105.997 13.3699 104.347 13.5582 102.954C13.9432 101.603 13.8582 100.161 13.3172 98.8638C12.6393 97.6059 11.3738 96.8452 10.3569 95.9036C9.78874 95.3773 9.33246 94.7418 9.01538 94.0352C8.6983 93.3286 8.52693 92.5653 8.51151 91.7909C8.51151 88.0247 9.6715 87.0455 10.1536 82.1946C10.5076 77.8786 9.86734 73.1557 10.4021 69.1108C11.0005 69.6265 11.6904 70.0251 12.4359 70.2859C13.5618 70.8003 14.8174 70.9605 16.0364 70.7454C18.62 71.928 21.7685 70.3311 23.1771 67.7324C24.4822 65.0278 24.6663 61.9173 23.6893 59.0777C22.8909 56.2003 19.8026 54.0611 17.0834 55.7182H16.9026C25.0075 46.7622 38.7466 43.9677 48.9907 50.6489C50.2714 51.496 51.3784 52.58 52.2522 53.8427C52.4838 54.179 52.6049 54.5792 52.5987 54.9876C52.6035 55.2017 52.5385 55.4116 52.4134 55.5855C52.2884 55.7595 52.1102 55.888 51.9057 55.9517C51.4839 56.027 51.2956 55.7107 51.0093 55.5224C50.7723 55.3248 50.4983 55.1762 50.2034 55.0855C50.0856 55.0578 49.9617 55.0769 49.8578 55.1387C49.7538 55.2005 49.6779 55.3003 49.646 55.4169C49.533 55.8764 50.5951 57.9779 47.5294 62.9493C46.3393 64.855 44.9608 66.6251 43.7632 68.5384L42.686 69.0581C42.6258 69.0841 42.5721 69.1233 42.5291 69.1729C42.4861 69.2224 42.4547 69.281 42.4375 69.3443C41.8453 69.2506 41.2392 69.3708 40.7276 69.6833C40.145 70.0744 39.67 70.6056 39.3462 71.2281C39.0225 71.8507 38.8603 72.5446 38.8746 73.2461C38.7466 75.182 39.3266 77.4643 40.7879 78.7598C40.9159 81.2229 41.5411 83.6484 41.752 86.1039C42.0994 88.7486 41.4642 91.4288 39.9668 93.6364C38.7617 95.3763 36.6978 96.5213 36.0199 98.6153C35.7452 99.8619 35.7918 101.158 36.1554 102.381C36.5131 103.542 36.463 104.789 36.0135 105.917C35.5641 107.045 34.7424 107.985 33.6848 108.581C32.6227 109.176 31.4251 109.085 30.3103 109.469C29.0448 109.944 28.7059 111.059 28.3142 112.234C28.0456 113.086 27.5493 113.849 26.8787 114.44C26.2082 115.03 25.389 115.426 24.5096 115.585C23.6303 115.744 22.7242 115.66 21.8893 115.342C21.0544 115.023 20.3224 114.482 19.7725 113.778H19.8101ZM47.68 132.255C47.6414 132.602 47.5343 132.938 47.3649 133.243C47.1955 133.548 46.9672 133.816 46.6933 134.033C46.3587 134.213 45.9847 134.307 45.6048 134.307C45.2249 134.307 44.851 134.213 44.5164 134.033C43.1455 133.332 42.2567 131.705 41.7219 130.342C41.2347 128.92 40.8891 127.455 40.6899 125.965C40.5513 124.705 39.9757 123.532 39.063 122.651C38.0385 121.815 36.6827 121.649 35.4926 121.243C34.3261 120.785 33.137 120.388 31.9298 120.053C30.9164 119.688 29.824 119.603 28.7661 119.804C28.1307 120.052 27.5647 120.45 27.1166 120.964C25.8545 122.169 24.2863 123.004 22.5824 123.38C20.8786 123.756 19.1043 123.658 17.4525 123.096C16.3075 122.696 15.0421 121.838 15.0572 120.482C15.0722 119.126 16.639 118.697 17.7387 118.433C18.4376 118.33 19.1051 118.074 19.6936 117.684C20.2821 117.293 20.7772 116.777 21.1434 116.173C21.9076 116.52 22.7382 116.696 23.5775 116.69C24.4167 116.684 25.2445 116.495 26.0035 116.136C26.7624 115.778 27.4343 115.259 27.9725 114.615C28.5107 113.971 28.9023 113.218 29.1202 112.407C35.5679 114.704 43.2886 115.247 49.9548 112.942C49.42 117.552 48.4408 128.421 47.6122 132.255H47.68ZM69.765 87.0154C64.3342 90.8343 59.4456 92.1675 51.047 95.301C50.5122 95.4969 50.7382 96.3556 51.2805 96.1974L52.5384 95.7454C52.7383 97.9993 52.8113 100.263 52.7569 102.525C52.6892 104.66 52.4829 106.789 52.1392 108.897C52.0783 109.591 51.9289 110.275 51.6948 110.931C51.3784 111.42 51.0771 111.684 49.6761 112.151C43.9967 114.087 36.8108 114.17 29.4591 111.563C29.5514 111.35 29.6545 111.141 29.768 110.938C29.9894 110.693 30.2572 110.495 30.5558 110.354C30.8545 110.213 31.1781 110.132 31.5079 110.117C32.3858 110.06 33.2411 109.814 34.0155 109.397C34.7899 108.979 35.4652 108.4 35.9956 107.698C36.526 106.996 36.8989 106.188 37.0889 105.329C37.279 104.47 37.2817 103.581 37.097 102.72C36.871 101.334 36.3438 99.8807 36.9689 98.5173C38.2796 95.9789 39.6279 95.9187 41.2022 93.2447C41.6913 92.3052 42.0607 91.3082 42.3019 90.2769C45.3228 89.5651 48.2043 88.356 50.8286 86.699C50.9642 87.1735 51.0847 87.6406 51.2052 88.1226C50.6629 88.3863 50.1281 88.6574 49.5933 88.9361C49.0585 89.2148 49.5104 89.8927 50.0226 89.6141C55.6534 86.7319 61.6017 84.5175 67.7464 83.0157C68.8235 82.7671 71.4598 81.8858 71.9494 83.4149C72.311 84.8385 70.6614 86.2471 69.6973 87.0154H69.765ZM70.6162 62.0304C67.2116 59.7707 66.5487 54.8671 66.85 51.1009C67.2398 47.2759 68.4472 43.5794 70.3902 40.2617C70.5027 40.6301 70.6411 40.9901 70.8045 41.3389C68.9214 44.4573 67.671 48.118 67.9648 51.7637C67.9569 51.8111 67.9569 51.8594 67.9648 51.9068C68.3416 55.9802 69.9884 59.8322 72.6726 62.9192C71.9111 62.7717 71.188 62.4691 70.5484 62.0304H70.6162ZM76.853 84.5523C75.6102 84.8159 73.9681 85.2377 72.7253 84.8008C72.8716 84.4261 72.9153 84.0191 72.8517 83.6218C72.7881 83.2246 72.6197 82.8515 72.3637 82.5411C72.7177 82.2926 73.117 82.0892 73.3957 81.9159C73.9907 81.5242 74.5858 81.1627 75.1808 80.771C75.7279 81.2297 76.1586 81.8116 76.4374 82.4688C76.7163 83.1261 76.8355 83.8401 76.7852 84.5523H76.853ZM90.3662 78.0819C86.4343 80.6882 82.3216 83.1814 77.7343 84.3489C77.7752 83.5735 77.6344 82.7992 77.3232 82.0878C77.0119 81.3764 76.5388 80.7475 75.9416 80.2513C80.9281 77.1178 83.474 75.664 87.5717 72.6661C88.2737 74.5684 89.1884 76.3852 90.2984 78.0819H90.3662ZM70.0287 56.6296C68.9038 53.8067 68.6417 50.7134 69.2754 47.7414C69.6956 45.7997 70.3906 43.9279 71.3393 42.1825C73.6367 45.4967 78.0658 47.3347 82.0655 47.8167C86.7581 48.3817 90.8181 47.0635 94.9534 46.7396C98.0718 46.491 101.311 46.8902 103.789 48.9993C104.854 49.8558 105.711 50.9427 106.296 52.1782C106.88 53.4137 107.177 54.7657 107.163 56.1325C107.108 57.6668 106.627 59.1554 105.774 60.4323C104.921 61.7091 103.731 62.724 102.335 63.3636C102.258 63.3833 102.188 63.4232 102.131 63.4793C102.075 63.5353 102.035 63.6055 102.015 63.6824C101.995 63.7593 101.996 63.8402 102.018 63.9166C102.04 63.993 102.082 64.0622 102.139 64.1169C102.835 64.743 103.665 65.2017 104.565 65.4576C93.6051 73.555 75.0453 70.0524 69.9383 56.6296H70.0287ZM103.329 63.9361C104.459 63.3392 105.449 62.5096 106.235 61.5021C107.02 60.4945 107.583 59.3319 107.887 58.0909C109.393 51.9821 104.587 46.4383 98.5614 45.8734C93.0703 45.2708 88.3023 47.6736 82.2839 46.9354C77.0715 46.3102 70.8572 43.237 70.8045 38.1903C70.8045 34.9438 73.8175 33.0005 76.371 31.6371C82.0035 28.6194 88.4744 27.5445 94.7802 28.579C106.832 30.6052 115.871 41.2711 115.201 53.6543C114.997 56.6673 114.138 59.7857 112.188 62.1283C109.74 65.1262 105.627 65.5932 103.239 63.9361H103.329Z" fill="#5E503B"/>
<path d="M112.361 69.8105C112.275 71.0956 112.107 72.3738 111.856 73.637C111.712 74.6893 111.436 75.7194 111.035 76.7027C109.988 78.9021 107.698 79.3541 105.348 79.6554C105.74 78.1489 105.717 76.4842 104.708 75.3167C107.088 74.232 106.967 71.4827 106.915 69.1251C106.915 69.0072 106.868 68.8942 106.785 68.8108C106.701 68.7275 106.588 68.6807 106.47 68.6807C106.352 68.6807 106.239 68.7275 106.156 68.8108C106.073 68.8942 106.026 69.0072 106.026 69.1251C106.18 70.4083 106.09 71.709 105.762 72.9591C105.494 73.4906 105.109 73.954 104.635 74.3143C104.161 74.6745 103.612 74.922 103.028 75.038C101.9 75.2853 100.831 75.7483 99.8794 76.4014C99.4463 76.6952 99.1236 77.1253 98.9626 77.6233C98.8016 78.1214 98.8114 78.6589 98.9906 79.1507C99.2361 79.5373 99.568 79.8616 99.9601 80.0982C100.352 80.3347 100.794 80.4771 101.25 80.5141C102.514 80.711 103.8 80.7313 105.069 80.5743C107.397 80.3634 109.815 79.9717 111.314 77.9757C111.984 76.9149 112.421 75.7234 112.594 74.4806C112.934 72.9403 113.158 71.3767 113.265 69.803C113.264 69.6831 113.215 69.5686 113.129 69.4845C113.044 69.4005 112.929 69.3538 112.809 69.3548C112.689 69.3558 112.574 69.4044 112.49 69.4898C112.406 69.5753 112.36 69.6907 112.361 69.8105ZM99.7288 78.6234C99.3748 77.4032 101.1 76.6123 101.989 76.3035C102.622 76.1316 103.246 75.9254 103.857 75.6858C104.986 76.6575 104.821 78.4201 104.406 79.7458C103.066 79.8437 100.105 79.9039 99.7288 78.6234Z" fill="#5E503B"/>
<path d="M74.5713 52.381C74.204 52.3855 73.8462 52.4985 73.5431 52.706C73.24 52.9135 73.005 53.206 72.8679 53.5468C72.7308 53.8876 72.6976 54.2613 72.7725 54.6209C72.8475 54.9805 73.0272 55.3099 73.289 55.5675C73.5508 55.8251 73.883 55.9995 74.2438 56.0686C74.6046 56.1378 74.9777 56.0985 75.3162 55.9559C75.6547 55.8133 75.9435 55.5737 76.146 55.2673C76.3485 54.9608 76.4559 54.6013 76.4544 54.234C76.4534 53.9884 76.4038 53.7454 76.3085 53.519C76.2131 53.2927 76.0739 53.0875 75.8988 52.9152C75.7238 52.743 75.5163 52.6071 75.2885 52.5154C75.0606 52.4237 74.8169 52.378 74.5713 52.381Z" fill="#5E503B"/>
<path d="M90.57 53.1944C90.2039 53.1958 89.8464 53.3058 89.5427 53.5103C89.2389 53.7148 89.0026 54.0047 88.8635 54.3434C88.7244 54.6821 88.6888 55.0545 88.7611 55.4134C88.8335 55.7724 89.0106 56.1018 89.27 56.3602C89.5294 56.6186 89.8596 56.7943 90.2188 56.8652C90.5781 56.9361 90.9503 56.899 91.2884 56.7585C91.6266 56.618 91.9155 56.3805 92.1188 56.076C92.3221 55.7714 92.4306 55.4135 92.4306 55.0473C92.4306 54.8034 92.3824 54.5618 92.2888 54.3365C92.1952 54.1112 92.058 53.9066 91.8852 53.7344C91.7123 53.5622 91.5071 53.4259 91.2815 53.3332C91.0558 53.2406 90.814 53.1934 90.57 53.1944Z" fill="#5E503B"/>
<path d="M85.2973 57.9998C83.4217 59.0393 80.9436 59.2126 79.3693 57.5479C79.0454 57.2014 78.375 57.2767 78.375 57.7814C78.4486 58.9327 78.7535 60.0573 79.2714 61.0881C79.5086 61.5555 79.8524 61.9606 80.275 62.2707C80.6977 62.5808 81.1873 62.7872 81.7043 62.8733C84.1448 63.265 85.2672 60.3048 85.9526 58.5121C86.1032 58.0978 85.6061 57.804 85.2973 57.9998ZM81.8098 61.9996C80.3033 61.7736 79.7233 60.2219 79.4371 58.7983C80.2163 59.2888 81.1018 59.5851 82.0193 59.6624C82.9368 59.7398 83.8594 59.5958 84.7098 59.2427C84.1448 60.5533 83.2861 62.1879 81.8098 61.9694V61.9996Z" fill="#5E503B"/>
</svg>
