<svg width="177" height="160" viewBox="0 0 177 160" fill="none" xmlns="http://www.w3.org/2000/svg">
<path d="M89.1109 135.5C118.811 135.5 143.011 111.4 143.011 81.8C142.911 52.1 118.811 28 89.1109 28C59.3109 28 35.2109 52.1 35.2109 81.7C35.2109 111.4 59.3109 135.5 89.1109 135.5Z" fill="#F1F3FA" stroke="#7165E3" stroke-width="2" stroke-miterlimit="10"/>
<path d="M146.211 88.5998C146.211 100.1 136.911 109.4 125.311 109.4C125.111 109.4 123.411 109.4 110.911 109.4C102.211 109.4 88.311 109.4 66.111 109.4H55.511C41.611 109.7 30.511 98.5998 30.511 85.1998C30.511 71.6998 41.711 60.4998 55.811 61.1998C67.911 23.3998 123.311 28.6998 128.011 67.7998C138.411 69.0998 146.211 77.8998 146.211 88.5998Z" fill="white" stroke="#7165E3" stroke-width="2" stroke-miterlimit="10"/>
<path d="M127.711 67.9001C126.911 67.8001 126.111 67.8 125.311 67.8C121.211 67.8 117.311 69 114.011 71.1" fill="white"/>
<path d="M127.711 67.9001C126.911 67.8001 126.111 67.8 125.311 67.8C121.211 67.8 117.311 69 114.011 71.1" stroke="#7165E3" stroke-width="2" stroke-miterlimit="10" stroke-linecap="round"/>
<path d="M55.811 61.2C54.611 64.8 54.011 68.5999 54.011 72.5999C54.011 74.1999 54.111 75.7 54.311 77.2" fill="white"/>
<path d="M55.811 61.2C54.611 64.8 54.011 68.5999 54.011 72.5999C54.011 74.1999 54.111 75.7 54.311 77.2" stroke="#7165E3" stroke-width="2" stroke-miterlimit="10" stroke-linecap="round" stroke-linejoin="round"/>
<path d="M78.2215 84.6854C79.7961 84.6854 81.1285 83.353 81.1285 81.7784C81.1285 80.2037 79.7961 78.8713 78.2215 78.8713C76.6468 78.8713 75.3145 80.2037 75.3145 81.7784C75.3145 83.353 76.6468 84.6854 78.2215 84.6854Z" fill="#7165E3"/>
<path d="M100.509 84.6854C102.083 84.6854 103.416 83.353 103.416 81.7784C103.416 80.2037 102.083 78.8713 100.509 78.8713C98.9342 78.8713 97.6018 80.2037 97.6018 81.7784C97.6018 83.4741 98.9342 84.6854 100.509 84.6854Z" fill="#7165E3"/>
<path d="M78.1079 72.1607L71.7131 75.6135L72.5763 77.2122L78.9711 73.7594L78.1079 72.1607Z" fill="#7165E3"/>
<path d="M100.114 72.1148L99.2505 73.7136L105.646 77.1657L106.509 75.5668L100.114 72.1148Z" fill="#7165E3"/>
<path d="M89.3652 91.4684C91.2383 91.4684 92.7567 90.3296 92.7567 88.9248C92.7567 87.5199 91.2383 86.3811 89.3652 86.3811C87.4921 86.3811 85.9736 87.5199 85.9736 88.9248C85.9736 90.3296 87.4921 91.4684 89.3652 91.4684Z" fill="#7165E3"/>
<path d="M18.0852 42.3611C18.0852 42.3611 4.10666 45.9102 8.34258 48.7495C12.5785 51.4468 22.6035 56.1316 32.0638 53.0084C41.524 49.8852 32.0638 45.4843 32.205 45.4843C32.3461 45.4843 18.0852 42.3611 18.0852 42.3611Z" fill="#F1F3FA" stroke="#7165E3" stroke-width="2" stroke-miterlimit="10"/>
<path d="M1 41.2253C6.08311 42.7869 21.756 40.2315 31.781 33.7012C39.6881 43.4967 42.6532 46.052 45.4772 46.336C41.1001 50.7369 26.5567 57.8351 18.3673 48.6074C8.76586 54.7119 1 41.2253 1 41.2253Z" fill="white" stroke="#7165E3" stroke-width="2" stroke-miterlimit="10" stroke-linejoin="round"/>
<path d="M131.069 76.7215C136.435 77.0055 150.978 70.4751 158.885 61.6733C169.051 69.1974 172.44 70.901 175.405 70.4751C172.158 75.8698 162.274 87.6528 148.295 88.5046C138.129 82.5421 131.069 76.7215 131.069 76.7215Z" fill="white" stroke="#7165E3" stroke-width="2" stroke-miterlimit="10" stroke-linejoin="round"/>
<path d="M88.2384 143.313C87.1769 138.045 77.2297 125.587 66.7357 120.122C71.4903 108.402 72.2961 104.696 71.145 101.93C77.1785 103.731 91.0522 110.369 95.3591 123.694C92.1169 135.025 88.2384 143.313 88.2384 143.313Z" fill="white" stroke="#7165E3" stroke-width="2" stroke-miterlimit="10" stroke-linejoin="round"/>
</svg>
