<svg width="90" height="90" viewBox="0 0 90 90" fill="none" xmlns="http://www.w3.org/2000/svg">
<mask id="mask0_101_2" style="mask-type:alpha" maskUnits="userSpaceOnUse" x="4" y="4" width="81" height="81">
<path d="M44.5 85C66.8675 85 85 66.8675 85 44.5C85 22.1325 66.8675 4 44.5 4C22.1325 4 4 22.1325 4 44.5C4 66.8675 22.1325 85 44.5 85Z" fill="white"/>
</mask>
<g mask="url(#mask0_101_2)">
<rect x="86" y="4" width="27" height="82" transform="rotate(90 86 4)" fill="#0F0F0F"/>
<rect x="86" y="31" width="27" height="82" transform="rotate(90 86 31)" fill="white"/>
<rect x="86" y="58" width="27" height="82" transform="rotate(90 86 58)" fill="#1CA903"/>
</g>
<path d="M16.751 15C8.90135 22.3865 4 32.8709 4 44.5C4 56.1291 8.90135 66.6135 16.751 74L44.5 44.5L16.751 15Z" fill="#D4010B"/>
</svg>
